<svg xmlns="http://www.w3.org/2000/svg" xmlns:xlink="http://www.w3.org/1999/xlink" preserveAspectRatio="xMidYMid meet" version="1.0" viewBox="0.0 0.0 674.0 500.0" zoomAndPan="magnify" style="fill: rgb(16, 17, 107);" original_string_length="15998"><g id="__id2261_scsswliikc"><path d="M657.672,36.598v220.465c0,8.475-6.871,15.337-15.337,15.337H264.709c-8.466,0-15.337-6.862-15.337-15.337 V36.598c0-8.475,6.871-15.337,15.337-15.337h377.626C650.8,21.261,657.672,28.123,657.672,36.598z" style="fill: rgb(243, 243, 243);"/></g><g id="__id2262_scsswliikc"><path d="M657.672,36.598v4.584h-408.3v-4.584c0-8.475,6.871-15.337,15.337-15.337h377.626 C650.8,21.261,657.672,28.123,657.672,36.598z" style="fill: rgb(35, 148, 230);"/></g><g id="__id2263_scsswliikc"><path d="M445.928,49.723v135.373c0,3.51-2.845,6.355-6.355,6.355H295.208c-3.51,0-6.355-2.845-6.355-6.355v-170.2 c0-3.51,2.845-6.355,6.355-6.355h102.478L445.928,49.723z M421.424,241.716c-0.126,0.252-0.126,0.441,0.063,0.693 c1.26,1.575,2.52,3.087,3.717,4.599c-1.953,1.953-3.906,3.906-5.922,5.922c-1.134-0.882-2.331-1.89-3.591-2.898 c-0.378-0.315-0.756-0.63-1.134-0.882c-0.126-0.063-0.378-0.126-0.504-0.063c-1.386,0.567-2.709,1.134-4.032,1.638 c-0.252,0.063-0.315,0.189-0.378,0.441c-0.189,1.89-0.378,3.78-0.567,5.607c0,0.126-0.063,0.315-0.063,0.441 c-2.646,0.252-5.418,0.252-8.19,0.252c-0.252-2.079-0.441-4.032-0.63-6.048c0-0.315-0.126-0.378-0.441-0.504 c-1.323-0.504-2.583-1.071-3.843-1.575c-0.252-0.126-0.441-0.189-0.693,0.063c-1.512,1.26-3.087,2.52-4.599,3.717 c-1.953-1.953-3.906-3.906-5.922-5.922c0.441-0.567,0.945-1.197,1.449-1.827c0.756-0.945,1.512-1.89,2.268-2.898 c0.126-0.126,0.126-0.378,0.063-0.567c-0.567-1.386-1.071-2.709-1.701-4.032c-0.063-0.126-0.252-0.315-0.378-0.315 c-1.827-0.189-3.717-0.378-5.544-0.63c-0.189,0-0.315-0.063-0.504-0.063c0-2.772,0-5.544,0-8.316 c1.575-0.189,3.15-0.315,4.725-0.504c0.504-0.063,1.134,0.063,1.512-0.189c0.315-0.252,0.378-0.882,0.567-1.386 c0.441-0.945,0.819-1.953,1.323-2.898c0.126-0.252,0.126-0.441-0.063-0.693c-1.26-1.512-2.52-3.087-3.717-4.599 c1.953-1.953,3.906-3.906,5.922-5.922c1.134,0.945,2.331,1.89,3.528,2.835c0.315,0.252,0.63,0.441,0.882,0.693 c0.378,0.441,0.63,0.315,1.071,0.126c1.26-0.567,2.457-1.071,3.717-1.512c0.252-0.063,0.315-0.189,0.315-0.441 c0.189-2.016,0.441-4.032,0.63-6.048c2.772,0,5.544,0,8.316,0c0.126,1.26,0.252,2.457,0.378,3.654 c0.063,0.756,0.189,1.575,0.252,2.331c0,0.315,0.126,0.378,0.378,0.441c1.323,0.504,2.646,1.134,4.032,1.638 c0.126,0.063,0.441,0,0.567-0.063c1.449-1.134,2.898-2.331,4.347-3.465c0.126-0.126,0.252-0.189,0.378-0.315 c1.953,1.953,3.906,3.906,5.859,5.922c-1.008,1.26-2.079,2.583-3.087,3.843c-0.315,0.378-0.756,0.693-0.819,1.071 c-0.063,0.378,0.378,0.756,0.504,1.197c0.378,1.008,0.819,2.079,1.197,3.087c0.126,0.252,0.189,0.441,0.504,0.441 c2.016,0.189,3.969,0.441,5.985,0.63c0,2.772,0,5.544,0,8.316c-1.701,0.189-3.402,0.378-5.166,0.567 c-1.197,0.126-1.134,0.126-1.575,1.197C422.369,239.574,421.865,240.645,421.424,241.716z M417.266,232.833 c0.063-6.741-5.418-12.222-12.033-12.348c-6.93-0.126-12.411,5.481-12.537,12.033c-0.126,6.993,5.481,12.348,11.907,12.537 C411.659,245.244,417.266,239.574,417.266,232.833z" style="fill: inherit;"/></g><g id="__id2264_scsswliikc"><path d="M217.193,213.475v22.695c0,7.318-5.267,13.395-12.214,14.676v32.457H132.15c-4.143,0-7.502-3.359-7.502-7.502v-36.142 c0-23.84,19.326-43.166,43.166-43.166h30.137c3.881,0,7.028,3.146,7.028,7.028v0.567h2.827 C212.99,204.088,217.193,208.291,217.193,213.475z" style="fill: inherit;"/></g><g id="__id2265_scsswliikc"><path d="M455.419,41.181v135.373c0,3.51-2.845,6.355-6.355,6.355H304.699c-3.51,0-6.355-2.845-6.355-6.355V6.355 c0-3.51,2.845-6.355,6.355-6.355h102.478L455.419,41.181z" style="fill: rgb(35, 148, 230);"/></g><g id="__id2266_scsswliikc"><path d="M609.331,145.449v135.373c0,3.51-2.845,6.355-6.355,6.355H458.611c-3.51,0-6.355-2.845-6.355-6.355v-170.2 c0-3.51,2.845-6.355,6.355-6.355h102.478L609.331,145.449z M499.801,74.33c-0.083,0.165-0.083,0.289,0.041,0.454 c0.825,1.031,1.65,2.021,2.433,3.01c-1.278,1.278-2.557,2.557-3.876,3.876c-0.742-0.577-1.526-1.237-2.351-1.897 c-0.247-0.206-0.495-0.412-0.742-0.577c-0.082-0.041-0.247-0.082-0.33-0.041c-0.907,0.371-1.773,0.742-2.639,1.072 c-0.165,0.041-0.206,0.124-0.247,0.289c-0.124,1.237-0.247,2.474-0.371,3.67c0,0.082-0.041,0.206-0.041,0.289 c-1.732,0.165-3.546,0.165-5.361,0.165c-0.165-1.361-0.289-2.639-0.412-3.959c0-0.206-0.082-0.247-0.289-0.33 c-0.866-0.33-1.691-0.701-2.516-1.031c-0.165-0.082-0.289-0.124-0.454,0.041c-0.99,0.825-2.021,1.65-3.01,2.433 c-1.278-1.278-2.557-2.557-3.876-3.876c0.289-0.371,0.619-0.784,0.948-1.196c0.495-0.619,0.99-1.237,1.485-1.897 c0.083-0.082,0.083-0.247,0.041-0.371c-0.371-0.907-0.701-1.773-1.113-2.639c-0.041-0.082-0.165-0.206-0.247-0.206 c-1.196-0.124-2.433-0.247-3.629-0.412c-0.124,0-0.206-0.041-0.33-0.041c0-1.814,0-3.629,0-5.444 c1.031-0.124,2.062-0.206,3.093-0.33c0.33-0.041,0.742,0.041,0.99-0.124c0.206-0.165,0.247-0.577,0.371-0.907 c0.289-0.619,0.536-1.278,0.866-1.897c0.082-0.165,0.082-0.289-0.041-0.454c-0.825-0.99-1.65-2.021-2.433-3.01 c1.278-1.278,2.557-2.557,3.876-3.876c0.742,0.619,1.526,1.237,2.309,1.856c0.206,0.165,0.412,0.289,0.577,0.454 c0.247,0.289,0.412,0.206,0.701,0.082c0.825-0.371,1.608-0.701,2.433-0.99c0.165-0.041,0.206-0.124,0.206-0.289 c0.124-1.32,0.289-2.639,0.412-3.959c1.814,0,3.629,0,5.444,0c0.082,0.825,0.165,1.608,0.247,2.392 c0.041,0.495,0.124,1.031,0.165,1.526c0,0.206,0.082,0.247,0.247,0.289c0.866,0.33,1.732,0.742,2.639,1.072 c0.082,0.041,0.289,0,0.371-0.041c0.948-0.742,1.897-1.526,2.846-2.268c0.082-0.082,0.165-0.124,0.247-0.206 c1.278,1.278,2.557,2.557,3.835,3.876c-0.66,0.825-1.361,1.691-2.021,2.516c-0.206,0.247-0.495,0.454-0.536,0.701 c-0.041,0.247,0.247,0.495,0.33,0.784c0.247,0.66,0.536,1.361,0.783,2.021c0.083,0.165,0.124,0.289,0.33,0.289 c1.32,0.124,2.598,0.289,3.918,0.412c0,1.815,0,3.629,0,5.444c-1.113,0.124-2.227,0.247-3.382,0.371 c-0.784,0.082-0.742,0.082-1.031,0.784C500.419,72.928,500.089,73.629,499.801,74.33z M497.079,68.516 c0.041-4.413-3.547-8-7.877-8.083c-4.536-0.082-8.124,3.588-8.207,7.877c-0.082,4.578,3.588,8.083,7.794,8.207 C493.409,76.64,497.079,72.928,497.079,68.516z" style="fill: inherit;"/></g><g id="__id2267_scsswliikc"><path d="M388.105,89.348h-77.284V77.881h77.284V89.348z M442.942,77.881h-45.577v11.467h45.577V77.881z M388.105,95.829h-77.284v11.467h77.284V95.829z M442.942,95.829h-45.577v11.467h45.577V95.829z M388.105,113.778h-77.284v11.467 h77.284V113.778z M442.942,113.778h-45.577v11.467h45.577V113.778z M388.105,131.726h-77.284v11.467h77.284V131.726z M442.942,131.726h-45.577v11.467h45.577V131.726z M387.807,40.293V26.172c0-4.81-3.899-8.709-8.709-8.709H319.53 c-4.81,0-8.709,3.899-8.709,8.709v14.121c0,4.81,3.899,8.709,8.709,8.709h59.568C383.908,49.002,387.807,45.103,387.807,40.293z" style="fill: rgb(212, 222, 249);"/></g><g id="__id2268_scsswliikc"><path d="M245.32,467.768c0,4.87,0,9.74,0,14.609c-25.66,3.159-51.318,6.317-76.978,9.476 c-36.15-3.159-72.301-6.317-108.451-9.476c-6.566,0-11.888-5.322-11.888-11.888v-77.4c0-37.693,30.556-68.249,68.249-68.249h73.138 c30.889,0,55.93,25.041,55.93,55.93c0,12.229,0,24.458,0,36.687c10.439,7.309,20.878,14.618,31.317,21.927L245.32,467.768z M497.303,301.39c0-4.576-3.71-8.286-8.286-8.286s-8.286,3.71-8.286,8.286c0,3.917,2.721,7.192,6.375,8.056v19h-144.33v18.894 c-3.66,0.859-6.388,4.137-6.388,8.059c0,4.576,3.71,8.286,8.286,8.286c4.576,0,8.286-3.71,8.286-8.286 c0-3.922-2.728-7.2-6.388-8.059v-15.098h144.33v-22.79C494.568,308.598,497.303,305.317,497.303,301.39z M576.473,449.953H449.44 v32.423h127.033V449.953z" style="fill: rgb(212, 222, 249);"/></g><g id="__id2269_scsswliikc"><path d="M278.018,372.884l-33.813,95.894h-74.901v13.599c13.245,0.329,26.808,0.48,40.676,0.424 c9.972-0.04,19.784-0.185,29.43-0.424c7.607,0,15.215,0,22.822,0h118.362l35.551-109.492L278.018,372.884L278.018,372.884z M519.227,474.606h-60.346v-16.883h60.346V474.606z M532.783,425.3h-60.346v16.883h60.346V425.3z" style="fill: inherit;"/></g><g id="__id2270_scsswliikc"><path d="M169.304,449.953c3.897,0.886,7.442,1.459,10.599,1.836c13.758,1.64,28.28,3.145,30.782,10.707 c0.822,2.484,0.091,4.979-0.625,6.66c-13.585,0.082-27.171,0.165-40.756,0.246C169.304,462.919,169.304,456.437,169.304,449.953z M196.431,216.254h-10.487c-3.22,0-6.358,1.073-8.918,3.303c-0.495,0.495-0.991,0.991-1.486,1.569 c-3.633,4.541-3.798,10.487-3.468,16.762c0.413,8.009,1.486,16.597-3.055,23.368c-1.569,2.395-4.459,5.45-9.991,7.349 c-0.083-6.441-4.624-11.643-10.239-11.725c-5.697-0.165-10.652,5.119-10.652,11.725v30.47v2.477v28.652 c8.66,3.907,17.318,7.816,25.978,11.723c8.295-3.907,16.591-7.816,24.887-11.723c0-9.551,0-19.101,0-28.652h0.413 c9.991,0,18.083-9.165,18.083-20.395v-52.515C207.497,221.786,202.542,216.254,196.431,216.254z" style="fill: rgb(243, 243, 243);"/></g><g id="__id2271_scsswliikc"><path d="M455.419,41.181h-48.242V0L455.419,41.181z M618.822,136.907H570.58V95.726L618.822,136.907z" style="fill: rgb(6, 79, 184);"/></g><g id="__id2272_scsswliikc"><path d="M618.822,136.907V272.28c0,3.51-2.845,6.355-6.355,6.355H468.102c-3.51,0-6.355-2.845-6.355-6.355v-170.2 c0-3.51,2.845-6.355,6.355-6.355H570.58L618.822,136.907z M588.78,417.53H461.747v32.423H588.78V417.53z M336.387,416.761 c-6.123,0-11.087,4.964-11.087,11.087c0,6.123,4.964,11.087,11.087,11.087c6.123,0,11.087-4.964,11.087-11.087 C347.474,421.725,342.51,416.761,336.387,416.761z" style="fill: rgb(35, 148, 230);"/></g><g id="__id2273_scsswliikc"><path d="M546.913,129.002v51.318h-69.749v-51.318H546.913z M504.03,208.435c-14.099,0-25.526,11.433-25.526,25.532 c0,14.099,11.427,25.526,25.526,25.526c14.099,0,25.532-11.426,25.532-25.526C529.562,219.868,518.129,208.435,504.03,208.435z M583.979,227.384h-38.64c-1.039,0-1.881-0.842-1.881-1.881v-1.676c0-1.039,0.842-1.881,1.881-1.881h38.64 c1.039,0,1.881,0.842,1.881,1.881v1.676C585.86,226.542,585.018,227.385,583.979,227.384z M566.989,238.176h-21.65 c-1.039,0-1.881-0.842-1.881-1.881v-1.676c0-1.039,0.842-1.881,1.881-1.881h21.65c1.039,0,1.881,0.842,1.881,1.881v1.676 C568.87,237.334,568.028,238.176,566.989,238.176z M585.709,248.968h-40.37c-1.039,0-1.881-0.842-1.881-1.881v-1.676 c0-1.039,0.842-1.881,1.881-1.881h40.37c1.039,0,1.881,0.842,1.881,1.881v1.676C587.59,248.126,586.748,248.968,585.709,248.968z M574.359,205.928h-9.7v-47.64h9.7V205.928z M590.241,205.67h-9.7v-57.753h9.7V205.67z M606.625,205.67h-9.7v-42.731h9.7V205.67z" style="fill: rgb(212, 222, 249);"/></g><g id="__id2274_scsswliikc"><path d="M189.012,257.17c-12.103,10.566-25.937,11.351-29.985,11.434c0-14.344,0-28.687,0-43.031l10.278-21.486h26.869 c2.935,5.56,5.87,11.12,8.805,16.681C205.013,223.706,204.914,243.287,189.012,257.17z M546.913,134.374v45.946h-69.749v-5.809 c5.97-3.73,11.94-7.46,17.909-11.19h21.867L546.913,134.374z M552.142,134.203v1.452c0,0.228-0.19,0.418-0.418,0.418 s-0.418-0.19-0.418-0.418v-1.452c0-0.228,0.19-0.408,0.418-0.408S552.142,133.975,552.142,134.203z M552.142,168.228v2.961 c0,0.228-0.19,0.418-0.418,0.418s-0.418-0.19-0.418-0.418v-2.961c0-0.228,0.19-0.408,0.418-0.408S552.142,168,552.142,168.228z M552.142,174.15v2.961c0,0.228-0.19,0.418-0.418,0.418s-0.418-0.19-0.418-0.418v-2.961c0-0.228,0.19-0.408,0.418-0.408 S552.142,173.922,552.142,174.15z M552.142,180.073v2.961c0,0.228-0.19,0.418-0.418,0.418s-0.418-0.19-0.418-0.418v-2.961 c0-0.228,0.19-0.408,0.418-0.408S552.142,179.845,552.142,180.073z M552.142,162.306v2.961c0,0.228-0.19,0.418-0.418,0.418 s-0.418-0.19-0.418-0.418v-2.961c0-0.228,0.19-0.418,0.418-0.418S552.142,162.078,552.142,162.306z M552.142,144.538v2.961 c0,0.228-0.19,0.418-0.418,0.418s-0.418-0.19-0.418-0.418v-2.961c0-0.228,0.19-0.418,0.418-0.418S552.142,144.311,552.142,144.538z M552.142,138.616v2.961c0,0.228-0.19,0.418-0.418,0.418s-0.418-0.19-0.418-0.418v-2.961c0-0.228,0.19-0.418,0.418-0.418 S552.142,138.388,552.142,138.616z M552.142,150.461v2.961c0,0.228-0.19,0.418-0.418,0.418s-0.418-0.19-0.418-0.418v-2.961 c0-0.228,0.19-0.418,0.418-0.418S552.142,150.233,552.142,150.461z M552.142,156.383v2.961c0,0.228-0.19,0.418-0.418,0.418 s-0.418-0.19-0.418-0.418v-2.961c0-0.228,0.19-0.418,0.418-0.418S552.142,156.155,552.142,156.383z M552.142,185.995v1.452 c0,0.228-0.19,0.418-0.418,0.418h-1.452c-0.228,0-0.418-0.19-0.418-0.418c0-0.228,0.19-0.418,0.418-0.418h1.034v-1.034 c0-0.228,0.19-0.408,0.418-0.408S552.142,185.767,552.142,185.995z M502.239,187.447c0,0.228-0.18,0.418-0.408,0.418h-2.857 c-0.228,0-0.408-0.19-0.408-0.418c0-0.228,0.18-0.418,0.408-0.418h2.857C502.058,187.029,502.239,187.219,502.239,187.447z M507.943,187.447c0,0.228-0.19,0.418-0.418,0.418h-2.847c-0.228,0-0.418-0.19-0.418-0.418c0-0.228,0.19-0.418,0.418-0.418h2.847 C507.753,187.029,507.943,187.219,507.943,187.447z M490.84,187.447c0,0.228-0.18,0.418-0.408,0.418h-2.857 c-0.228,0-0.408-0.19-0.408-0.418c0-0.228,0.18-0.418,0.408-0.418h2.857C490.66,187.029,490.84,187.219,490.84,187.447z M485.146,187.447c0,0.228-0.19,0.418-0.418,0.418h-2.847c-0.228,0-0.418-0.19-0.418-0.418c0-0.228,0.19-0.418,0.418-0.418h2.847 C484.956,187.029,485.146,187.219,485.146,187.447z M496.544,187.447c0,0.228-0.19,0.418-0.418,0.418h-2.847 c-0.228,0-0.418-0.19-0.418-0.418c0-0.228,0.19-0.418,0.418-0.418h2.847C496.354,187.029,496.544,187.219,496.544,187.447z M513.637,187.447c0,0.228-0.18,0.418-0.408,0.418h-2.857c-0.228,0-0.408-0.19-0.408-0.418c0-0.228,0.18-0.418,0.408-0.418h2.857 C513.457,187.029,513.637,187.219,513.637,187.447z M519.341,187.447c0,0.228-0.19,0.418-0.418,0.418h-2.847 c-0.228,0-0.418-0.19-0.418-0.418c0-0.228,0.19-0.418,0.418-0.418h2.847C519.151,187.029,519.341,187.219,519.341,187.447z M542.139,187.447c0,0.228-0.19,0.418-0.418,0.418h-2.847c-0.228,0-0.418-0.19-0.418-0.418c0-0.228,0.19-0.418,0.418-0.418h2.847 C541.949,187.029,542.139,187.219,542.139,187.447z M525.036,187.447c0,0.228-0.18,0.418-0.408,0.418h-2.857 c-0.228,0-0.408-0.19-0.408-0.418c0-0.228,0.18-0.418,0.408-0.418h2.857C524.856,187.029,525.036,187.219,525.036,187.447z M547.833,187.447c0,0.228-0.18,0.418-0.408,0.418h-2.857c-0.228,0-0.408-0.19-0.408-0.418c0-0.228,0.18-0.418,0.408-0.418h2.857 C547.653,187.029,547.833,187.219,547.833,187.447z M536.434,187.447c0,0.228-0.18,0.418-0.408,0.418h-2.857 c-0.228,0-0.408-0.19-0.408-0.418c0-0.228,0.18-0.418,0.408-0.418h2.857C536.254,187.029,536.434,187.219,536.434,187.447z M530.74,187.447c0,0.228-0.19,0.418-0.418,0.418h-2.847c-0.228,0-0.418-0.19-0.418-0.418c0-0.228,0.19-0.418,0.418-0.418h2.847 C530.55,187.029,530.74,187.219,530.74,187.447z M479.441,187.447c0,0.228-0.18,0.418-0.408,0.418h-1.452 c-0.228,0-0.418-0.19-0.418-0.418c0-0.228,0.19-0.418,0.418-0.418h1.452C479.261,187.029,479.441,187.219,479.441,187.447z M622.622,176.23l45.063,17.887l-2.887,7.28l-45-17.887c-7.782,14.31-25.293,20.9-40.795,14.749 c-16.758-6.653-24.979-25.67-18.327-42.427s25.67-24.979,42.427-18.327C618.606,143.656,626.827,160.476,622.622,176.23z M600.907,143.028c-13.745-5.398-29.247,1.255-34.707,15c-5.398,13.745,1.255,29.247,15,34.707c13.745,5.398,29.247-1.255,34.707-15 C621.304,164.054,614.652,148.489,600.907,143.028z M387.807,71.399h-77.284V59.932h77.284V71.399z M442.644,59.932h-45.577v11.467 h45.577V59.932z M442.644,149.675h-45.577v11.467h45.577V149.675z M263.166,27.324c-2.152,0-3.897,1.745-3.897,3.897 s1.745,3.897,3.897,3.897s3.897-1.745,3.897-3.897S265.318,27.324,263.166,27.324z M281.215,31.221c0,2.152-1.745,3.897-3.897,3.897 s-3.897-1.745-3.897-3.897s1.745-3.897,3.897-3.897S281.215,29.069,281.215,31.221z" style="fill: inherit;"/></g><g id="__id2275_scsswliikc"><path d="M596.255,482.376H0V500h596.255V482.376z M632.602,178.363l-4.142,10.356l41.36,16.444l4.142-10.356 L632.602,178.363z" style="fill: rgb(35, 148, 230);"/></g><g id="__id2276_scsswliikc"><path d="M164.114,341.926l-11.499,23.34l-32.679-40.427l18.2-11.003L164.114,341.926z M179.936,365.267 l21.235-39.179l-12.171-12.25l-24.887,28.089L179.936,365.267z M169.304,437.557h-17.882v44.819h17.882V437.557z M542.091,123.374 l2.192,2.268l-3.739,3.36l-27.979,25.104h-20.216l-15.186,10.003v4.954l16.429-10.82h20.567l32.573-29.242l0.427-0.38l2.003,2.079 l2.563-9.538L542.091,123.374z M511.8,119.354h-30.778c-2.131,0-3.859-1.728-3.859-3.859v-0.918c0-2.131,1.728-3.859,3.859-3.859 H511.8c2.131,0,3.859,1.728,3.859,3.859v0.918C515.659,117.627,513.931,119.354,511.8,119.354z M474.004,233.967h30.026v-30.034 C487.444,203.933,474.004,217.382,474.004,233.967z" style="fill: rgb(6, 79, 184);"/></g></svg>