<svg xmlns="http://www.w3.org/2000/svg" xmlns:xlink="http://www.w3.org/1999/xlink" preserveAspectRatio="xMidYMid meet" version="1.0" viewBox="36.9 92.4 473.0 327.0" zoomAndPan="magnify" style="fill: rgb(0, 0, 0);" original_string_length="19548"><g><g><g><g><g id="__id208_sgq4m9h8li"><path d="M42.9,393.9c0.7,2.4,1.5,4.7,2.4,7.1c1.8,4.7,3.9,9.3,6.5,13.7H425c-0.2-4.6-0.4-9.2-0.4-13.7v-0.2 c0-2.3,0-4.6,0.1-6.9c1.2-22.3,9.4-42.3,21.3-61.5c17.4-28.1,41-54.9,46.7-88.5c8.2-48.1-10.5-99.2-61.1-113 c-32.1-8.7-64.6,3.3-96.2,8.6c-25.8,4.3-52.3-0.6-76.6-9.4c-4.4-1.6-8.9-3.3-13.3-5c-29.4-11.5-58.6-25.3-89.5-29.6 c-22.1-3.1-42.5,1.2-54.9,17.5c0,0,0,0,0,0c-3.1,4-5.6,8.8-7.6,14.4c-0.3,1-0.7,1.9-0.9,2.9c0,0,0,0,0,0.1 c-2.4,8-3.4,16.2-3.7,24.6c-0.6,16.6,1.4,33.7-1,49.9c-2.1,14-7.2,26.9-13.3,39.4c-10.6,21.7-24.3,42.2-30.3,65.7 c-1.7,6.7-3.2,13.7-4.2,20.8C36.9,351.9,37,373.8,42.9,393.9z" style="fill: rgb(229, 225, 249);"/></g></g><g><g><g id="__id209_sgq4m9h8li"><path d="M123.2,342l-3.4-0.4l3.1,1.9c-1.8,8.8-7.1,14.9-7.5,15.3c0,0,0,0,0,0c-1.3,1.4-6.1-1.8-7-2.6 c-3.5-3.2-5.2-7.8-6.7-12.1c-1.9-5.3-3.6-10.6-5.9-15.8c-1.8-4.1-3.8-8.1-5.7-12.2l1.7-5l-4.2-0.4c-0.4-0.9-0.8-1.8-1.2-2.7 c-1.7-4-3.4-8.1-4.9-12.2c0.8,0.3,20.5,7.7,32.5,20.1l-1.6,2.5l4.6,0.9c1.5,1.9,2.8,3.9,3.8,6 C123.6,331.3,124,337.1,123.2,342z" style="fill: rgb(122, 69, 225);"/></g><g id="__id210_sgq4m9h8li"><path d="M164.6,330.6c-0.4,0.5-0.8,1-1.2,1.5c-3.7,5.2-7.7,10.1-12.1,14.7l-2.2-1.4c0,0,0.7,1.4,1.2,2.4 c-3.8,4-7.9,7.7-12.1,11.3c-1.2,1-2.5,2-4,2.6l-1.8-1.9c0,0,0,1.4,0,2.4c-0.7,0.1-1.3,0.2-2,0.1c-0.9-0.1-4.1-0.8-4.6-1.6l0,0 c0,0-4.3-9.7,3.9-18.3c0.9-0.9,1.8-1.7,2.8-2.4l1.4,1.8l2.3-3.9c2.2-1,4.5-1.9,6.7-2.6c4.9-1.6,10.1-2.8,15.2-3.7 C160.5,331.2,162.5,330.9,164.6,330.6z" style="fill: rgb(122, 69, 225);"/></g><g id="__id211_sgq4m9h8li"><path d="M104.5,367.3L104.5,367.3c-5.6,2.4-12.2,0.3-18.1-3.3c0.8-1.6,2.3-4.8,2.5-5c0.1-0.2-2.9,2.2-4.6,3.6 C75.8,357,69,349.1,69,349.1s22.4-1.4,30.7,2.9c0.8,0.4,1.5,0.9,2.1,1.4l-0.7,1.7l1.9-0.5C107,359.7,104.5,367.3,104.5,367.3z" style="fill: rgb(122, 69, 225);"/></g><g><g id="__id212_sgq4m9h8li"><path d="M115.3,383.7l-1-0.2c0.1-0.5,7.4-48.3-20.4-75l0.7-0.7C122.8,334.9,115.4,383.3,115.3,383.7z" style="fill: rgb(38, 42, 65);"/></g><g id="__id213_sgq4m9h8li"><path d="M116.4,390.6l-1-0.1c0-0.4,3.1-38.3,34.8-51.1l0.4,0.9C119.5,352.9,116.4,390.2,116.4,390.6z" style="fill: rgb(38, 42, 65);"/></g><g id="__id214_sgq4m9h8li"><path d="M113.9,381.3c-0.1-0.2-12.7-23.8-31.6-28.1l0.2-1c19.4,4.4,32.2,28.4,32.3,28.6L113.9,381.3z" style="fill: rgb(38, 42, 65);"/></g></g><g id="__id215_sgq4m9h8li"><path d="M135.4,379.4l-9.5,34.3H106l-9.4-34.1c0-0.1,0-0.1,0-0.1l0-0.1H135.4z" style="fill: rgb(38, 42, 65);"/></g></g></g><g><g><g><g><g><g><g id="__id216_sgq4m9h8li"><path d="M354.1,162.2v168.8c0,3.7-2.7,6.6-6.1,6.6H85.3c-3.4,0-6.1-3-6.1-6.6V162.2c0-3.7,2.7-6.6,6.1-6.6 H348C351.4,155.6,354.1,158.6,354.1,162.2z" style="fill: rgb(255, 255, 255);"/></g><g id="__id217_sgq4m9h8li"><path d="M348,338.2H85.3c-3.7,0-6.6-3.2-6.6-7.1V162.2c0-3.9,3-7.1,6.6-7.1H348c3.6,0,6.6,3.2,6.6,7.1 v168.8C354.6,335,351.7,338.2,348,338.2z M85.3,156.1c-3.1,0-5.6,2.7-5.6,6.1v168.8c0,3.4,2.5,6.1,5.6,6.1H348 c3.1,0,5.6-2.8,5.6-6.1V162.2c0-3.4-2.5-6.1-5.6-6.1H85.3z" style="fill: rgb(38, 42, 65);"/></g></g><g id="__id218_sgq4m9h8li"><path d="M354.1,162.2v12.1h-275v-12.1c0-3.7,2.7-6.6,6.1-6.6H348C351.4,155.6,354.1,158.6,354.1,162.2z" style="fill: rgb(38, 42, 65);"/></g></g></g></g><g><g id="__id219_sgq4m9h8li"><circle cx="94.1" cy="165.6" r="3" style="fill: rgb(255, 255, 255);"/></g><g id="__id220_sgq4m9h8li"><circle cx="109" cy="165.6" r="3" style="fill: rgb(255, 255, 255);"/></g><g id="__id221_sgq4m9h8li"><circle cx="123.9" cy="165.6" r="3" style="fill: rgb(255, 255, 255);"/></g></g></g><g><g id="__id222_sgq4m9h8li"><path d="M211 275.3L175.6 239.9 158 257.6 137.2 237.6 104.2 270.7 102.9 269.4 137.2 235.1 157.9 255 175.6 237.3 211 272.6 258.1 225.5 284.1 251.5 327.6 208 328.9 209.3 284.1 254.1 258.1 228.1z" style="fill: rgb(122, 69, 225);"/></g><g id="__id223_sgq4m9h8li"><circle cx="328.9" cy="207.2" r="4" style="fill: rgb(38, 42, 65);"/></g><g id="__id224_sgq4m9h8li"><circle cx="284.2" cy="252.8" r="4" style="fill: rgb(38, 42, 65);"/></g><g id="__id225_sgq4m9h8li"><circle cx="258.4" cy="227.6" r="4" style="fill: rgb(38, 42, 65);"/></g><g id="__id226_sgq4m9h8li"><circle cx="211.5" cy="273.9" r="4" style="fill: rgb(38, 42, 65);"/></g><g id="__id227_sgq4m9h8li"><circle cx="176.6" cy="239.2" r="4" style="fill: rgb(38, 42, 65);"/></g><g id="__id228_sgq4m9h8li"><circle cx="137.3" cy="237.3" r="4" style="fill: rgb(38, 42, 65);"/></g><g id="__id229_sgq4m9h8li"><circle cx="104.4" cy="270" r="4" style="fill: rgb(38, 42, 65);"/></g><g id="__id230_sgq4m9h8li"><circle cx="157.8" cy="255.5" r="4" style="fill: rgb(38, 42, 65);"/></g></g><g><g id="__id231_sgq4m9h8li"><path d="M138.4 307.1H153.8V319.1H138.4z" style="fill: rgb(229, 225, 249);"/></g><g id="__id232_sgq4m9h8li"><path d="M161.9 301.9H177.3V319.09999999999997H161.9z" style="fill: rgb(229, 225, 249);"/></g><g id="__id233_sgq4m9h8li"><path d="M91.4 307.1H106.80000000000001V319.1H91.4z" style="fill: rgb(229, 225, 249);"/></g><g id="__id234_sgq4m9h8li"><path d="M114.9 301.9H130.3V319.09999999999997H114.9z" style="fill: rgb(229, 225, 249);"/></g><g id="__id235_sgq4m9h8li"><path d="M185.4 291.3H200.8V319.1H185.4z" style="fill: rgb(229, 225, 249);"/></g><g id="__id236_sgq4m9h8li"><path d="M208.9 294.8H224.3V319H208.9z" style="fill: rgb(229, 225, 249);"/></g><g id="__id237_sgq4m9h8li"><path d="M232.4 284.5H247.8V319.1H232.4z" style="fill: rgb(229, 225, 249);"/></g><g id="__id238_sgq4m9h8li"><path d="M255.9 278H271.3V319.1H255.9z" style="fill: rgb(229, 225, 249);"/></g><g id="__id239_sgq4m9h8li"><path d="M279.5 294.8H294.9V319H279.5z" style="fill: rgb(229, 225, 249);"/></g><g id="__id240_sgq4m9h8li"><path d="M303 284.5H318.4V319.1H303z" style="fill: rgb(229, 225, 249);"/></g><g id="__id241_sgq4m9h8li"><path d="M326.5 278H341.9V319.1H326.5z" style="fill: rgb(229, 225, 249);"/></g></g><g><g id="__id242_sgq4m9h8li"><path d="M100 193.5H176.5V196.8H100z" style="fill: rgb(122, 69, 225);"/></g><g id="__id243_sgq4m9h8li"><path d="M100 202.9H136.4V206.20000000000002H100z" style="fill: rgb(122, 69, 225);"/></g></g></g><g><g><g id="__id244_sgq4m9h8li"><path d="M281 108.4H387.2V218.10000000000002H281z" style="fill: rgb(255, 255, 255);"/></g><g id="__id245_sgq4m9h8li"><path d="M387.7,218.5H280.5V107.9h107.2V218.5z M281.5,217.5h105.2V108.9H281.5V217.5z" style="fill: rgb(38, 42, 65);"/></g></g><g><g id="__id246_sgq4m9h8li"><path d="M334.1,122.8v13.8c-9.5,0-17.3,7.7-17.3,17.3H303C303,136.7,316.9,122.8,334.1,122.8z" style="fill: rgb(229, 225, 249);"/></g><g id="__id247_sgq4m9h8li"><path d="M356,175.9c-5.6,5.6-13.4,9-21.9,9c-17.2,0-31.1-13.9-31.1-31.1h13.8c0,9.5,7.7,17.3,17.3,17.3 c4.7,0,9-1.9,12.1-5L356,175.9z" style="fill: rgb(122, 69, 225);"/></g><g id="__id248_sgq4m9h8li"><path d="M365.2,153.9c0,8.6-3.5,16.4-9.2,22l-9.8-9.8c3.2-3.1,5.1-7.5,5.1-12.3c0-9.5-7.7-17.3-17.3-17.3 v-13.8C351.3,122.8,365.2,136.7,365.2,153.9z" style="fill: rgb(122, 69, 225);"/></g></g><g><g id="__id249_sgq4m9h8li"><path d="M302.2 192.1H365.9V194.29999999999998H302.2z" style="fill: rgb(229, 225, 249);"/></g><g id="__id250_sgq4m9h8li"><path d="M302.2 201.5H365.9V203.7H302.2z" style="fill: rgb(229, 225, 249);"/></g></g></g><g><g id="__id251_sgq4m9h8li"><path d="M40.4 412.4H470.5V415.29999999999995H40.4z" style="fill: rgb(38, 42, 65);"/></g></g><g><g id="__id252_sgq4m9h8li"><path d="M45.2 217.4H121.2V275.5H45.2z" style="fill: rgb(122, 69, 225);"/></g><g><g><g><g id="__id253_sgq4m9h8li"><path d="M80 250.6H86.4V261.1H80z" style="fill: rgb(255, 255, 255);"/></g></g><g><g id="__id254_sgq4m9h8li"><path d="M91.9 238.8H98.30000000000001V261H91.9z" style="fill: rgb(38, 42, 65);"/></g></g><g><g id="__id255_sgq4m9h8li"><path d="M56.3 255.3H62.699999999999996V261H56.3z" style="fill: rgb(255, 255, 255);"/></g></g><g><g id="__id256_sgq4m9h8li"><path d="M68.1 246H74.5V261H68.1z" style="fill: rgb(38, 42, 65);"/></g></g><g><g id="__id257_sgq4m9h8li"><path d="M103.7 231.9H110.10000000000001V261.1H103.7z" style="fill: rgb(255, 255, 255);"/></g></g></g></g></g><g><g><g id="__id258_sgq4m9h8li"><path d="M252.2,363.1H198c-0.7,0-1.3-0.6-1.3-1.3l0,0c0-0.7,0.6-1.3,1.3-1.3h54.3c0.7,0,1.3,0.6,1.3,1.3l0,0 C253.6,362.5,253,363.1,252.2,363.1z" style="fill: rgb(255, 255, 255);"/></g><g id="__id259_sgq4m9h8li"><path d="M219.1,363.1H198c-0.7,0-1.3-0.6-1.3-1.3l0,0c0-0.7,0.6-1.3,1.3-1.3h21.1c0.7,0,1.3,0.6,1.3,1.3l0,0 C220.4,362.5,219.8,363.1,219.1,363.1z" style="fill: rgb(122, 69, 225);"/></g></g><g><g id="__id260_sgq4m9h8li"><path d="M252.2,372.9H198c-0.7,0-1.3-0.6-1.3-1.3l0,0c0-0.7,0.6-1.3,1.3-1.3h54.3c0.7,0,1.3,0.6,1.3,1.3l0,0 C253.6,372.3,253,372.9,252.2,372.9z" style="fill: rgb(255, 255, 255);"/></g><g id="__id261_sgq4m9h8li"><path d="M228.1,372.9H198c-0.7,0-1.3-0.6-1.3-1.3l0,0c0-0.7,0.6-1.3,1.3-1.3h30.2c0.7,0,1.3,0.6,1.3,1.3l0,0 C229.5,372.3,228.9,372.9,228.1,372.9z" style="fill: rgb(122, 69, 225);"/></g></g><g><g id="__id262_sgq4m9h8li"><path d="M252.2,382.7H198c-0.7,0-1.3-0.6-1.3-1.3l0,0c0-0.7,0.6-1.3,1.3-1.3h54.3c0.7,0,1.3,0.6,1.3,1.3l0,0 C253.6,382.1,253,382.7,252.2,382.7z" style="fill: rgb(255, 255, 255);"/></g><g id="__id263_sgq4m9h8li"><path d="M240.9,382.7h-43c-0.7,0-1.3-0.6-1.3-1.3l0,0c0-0.7,0.6-1.3,1.3-1.3h43c0.7,0,1.3,0.6,1.3,1.3l0,0 C242.3,382.1,241.7,382.7,240.9,382.7z" style="fill: rgb(38, 42, 65);"/></g></g></g><g><g><g><g><g><g><g id="__id264_sgq4m9h8li"><path d="M462.6,193.8c-0.6,1.8-1.5,3.5-2.7,5c-0.8,1.1-1.8,2-3,2.9c-2,1.5-4.2,2.4-6.5,2.9l-0.7-3.6 c4.4-0.9,8-4.1,9.3-8.3L462.6,193.8z" style="fill: rgb(255, 255, 255);"/></g><g id="__id265_sgq4m9h8li"><path d="M462.6,193.8l-3.5-1.2c0.4-1.2,0.6-2.5,0.6-3.8c0-6.2-4.6-11.4-10.6-12.2l0.5-3.7 c1.8,0.3,3.5,0.8,5.2,1.7c2,1.1,3.9,2.6,5.4,4.6C463.5,183.5,464.2,189,462.6,193.8z" style="fill: rgb(122, 69, 225);"/></g><g id="__id266_sgq4m9h8li"><path d="M450.4,204.5c-5.9,1.1-12.1-1-16-6.2c-5.3-7.1-3.8-17.2,3.3-22.5c3.5-2.7,7.9-3.6,11.9-3l-0.5,3.7 c-0.6-0.1-1.2-0.1-1.8-0.1c-6.8,0-12.3,5.5-12.3,12.3c0,6.8,5.5,12.3,12.3,12.3c0.8,0,1.6-0.1,2.4-0.2L450.4,204.5z" style="fill: rgb(122, 69, 225);"/></g></g></g></g></g></g></g><g><g><g><g><g><g><g id="__id267_sgq4m9h8li"><path d="M449.1,231.2c-0.3,0.9-0.8,1.8-1.4,2.5c-0.4,0.5-0.9,1-1.5,1.5c-1,0.8-2.1,1.2-3.3,1.5l-0.4-1.8 c2.2-0.4,4.1-2.1,4.7-4.2L449.1,231.2z" style="fill: rgb(255, 255, 255);"/></g><g id="__id268_sgq4m9h8li"><path d="M449.1,231.2l-1.8-0.6c0.2-0.6,0.3-1.3,0.3-2c0-3.2-2.3-5.8-5.4-6.2l0.3-1.9 c0.9,0.1,1.8,0.4,2.6,0.9c1,0.5,2,1.3,2.7,2.3C449.5,226,449.9,228.8,449.1,231.2z" style="fill: rgb(122, 69, 225);"/></g><g id="__id269_sgq4m9h8li"><path d="M442.9,236.7c-3,0.6-6.2-0.5-8.1-3.1c-2.7-3.6-2-8.7,1.7-11.4c1.8-1.3,4-1.8,6.1-1.5l-0.3,1.9 c-0.3,0-0.6-0.1-0.9-0.1c-3.5,0-6.3,2.8-6.3,6.3c0,3.5,2.8,6.3,6.3,6.3c0.4,0,0.8,0,1.2-0.1L442.9,236.7z" style="fill: rgb(122, 69, 225);"/></g></g></g></g></g></g></g><g><g id="__id270_sgq4m9h8li"><path d="M356.7,290.7c-21,0.8-58.5,108.7-43.9,110.8C332.6,415.2,390.8,296.2,356.7,290.7z" style="fill: rgb(244, 169, 162);"/></g><g><g><g id="__id271_sgq4m9h8li"><path d="M321.8,401.2c-2.9,1.6-6.6,1.3-9.5-0.4c-22.7-13.4-74-100.3-66.4-101.4 C250.5,296.7,344,389,321.8,401.2z" style="fill: rgb(244, 169, 162);"/></g></g></g><g id="__id272_sgq4m9h8li"><path d="M263.7,310.3l49.6,52.7l7-15.4l27.6,19.8c0,0-16,34-31,36.4c-15,2.4-68-88.8-68-88.8L263.7,310.3z" style="fill: rgb(244, 169, 162);"/></g><g><g id="__id273_sgq4m9h8li"><path d="M262,312.1c0,0,1.7,1,1.7,1l0.7-4.5l0,0l0.8-7.9c0.2-2-0.1-4.1-0.9-5.9l-5.3-7.3c0,0-2.7-0.5-0.8,4.3 c0.5,1.2,0.1,3.3-0.3,5l-2.5-4.4c0,0-5.8-9.8-5.8-9.8c-0.9-1.3-3.5-0.1-4.5,0.4c-2.1,1-3.5,2-4.1,4.2 c-0.3,1.3-0.7,2.6-0.9,3.9c-0.5,3.8,0.2,7.6,1.4,11.2c1,2.9,2.3,5.7,3.9,8.3c1.5,2.5,3.5,4.5,5.1,6.9c1.9-1,3.8-1.8,5.8-2.8 c1.3-0.6,2.6-1.2,3.9-1.9C260.5,312.8,261.9,312,262,312.1z" style="fill: rgb(244, 169, 162);"/></g></g><g><g><g id="__id274_sgq4m9h8li"><path d="M233.5,261.2c-12.4,7.3-27.9,4.9-37.5-5c-1.4-1.4-2.6-3-3.7-4.7c-0.3-0.4-0.6-0.9-0.8-1.3 c-0.5-0.9-1-1.7-1.4-2.6c-2-4.3-2.9-8.8-2.9-13.2c0.1-10.4,5.5-20.6,15.2-26.2c9.8-5.7,21.4-5.5,30.6-0.3 c3.9,2.2,7.4,5.2,10.1,9.1c0.5,0.7,1,1.4,1.4,2.2c0.3,0.6,0.6,1.1,0.9,1.7c0.9,1.8,1.6,3.7,2.2,5.6 C251.2,239.4,245.8,253.9,233.5,261.2z" style="fill: rgb(229, 225, 249);"/></g><g><g id="__id275_sgq4m9h8li"><path d="M250.4,215.5c-10.6-18-33.7-24-51.7-13.4c-18,10.6-24,33.7-13.4,51.7c9.8,16.7,30.6,23.1,47.9,15.3 c1.3-0.6,2.5-1.2,3.8-1.9c1.2-0.7,2.4-1.5,3.5-2.4C255.8,253.5,260.3,232.3,250.4,215.5z M189.6,251.3 c-9.2-15.7-4-35.8,11.7-45c15.7-9.2,35.8-4,45,11.7c9.2,15.7,4,35.8-11.7,45C218.9,272.2,198.8,267,189.6,251.3z" style="fill: rgb(38, 42, 65);"/></g></g><g id="__id276_sgq4m9h8li"><path d="M245.4 263.1H253.20000000000002V313.1H245.4z" transform="rotate(-30.458 249.327 288.08)" style="fill: rgb(38, 42, 65);"/></g><g id="__id277_sgq4m9h8li"><path d="M276.7,326.6l-7,4.1c-0.8,0.5-1.8,0.2-2.3-0.6l-23.4-39.8c-0.5-0.8-0.2-1.8,0.6-2.3l7-4.1 c0.8-0.5,1.8-0.2,2.3,0.6l23.4,39.8C277.7,325.1,277.5,326.2,276.7,326.6z" style="fill: rgb(38, 42, 65);"/></g></g><g id="__id278_sgq4m9h8li" opacity=".2"><path d="M243,216.9l-53,30.7c-2-4.3-2.9-8.8-2.9-13.2l45.8-26.6C236.9,210,240.3,213.1,243,216.9z" style="fill: rgb(255, 255, 255);"/></g><g id="__id279_sgq4m9h8li" opacity=".2"><path d="M247.5,226.3L196,256.2c-1.4-1.4-2.6-3-3.7-4.7l53.1-30.8C246.3,222.6,247,224.4,247.5,226.3z" style="fill: rgb(255, 255, 255);"/></g></g><g id="__id280_sgq4m9h8li"><path d="M358.4,286.5l-0.2,26.5l-0.4,52.3c0,0-0.4,0.7-1.2,1.9c-0.2,0.3-0.4,0.6-0.6,1c-0.7,1.1-1.5,2.4-2.5,4 l-11.8-8l-4.4-2.9L319.2,349c5.8-14.9,11.7-29.3,16-37.1C346.4,291,358.4,286.5,358.4,286.5z" style="fill: rgb(122, 69, 225);"/></g><g><g id="__id281_sgq4m9h8li"><path d="M411.2 290L393.9 303 381.6 292 381.6 275.4 406.2 256.2 406.7 259.1 407.9 267.9z" style="fill: rgb(244, 169, 162);"/></g><g id="__id282_sgq4m9h8li"><path d="M407,262.1c-6.7,13.4-22.3,20-25.4,20.9v-3.5l22.9-20.3c0,0,0.9-0.1,2.1-0.1L407,262.1z" style="fill: rgb(38, 42, 65);"/></g><g><g id="__id283_sgq4m9h8li"><path d="M408.3,259.6c0,0-4.6,10.2-15.2,15.3c-5,2.4-10.6,5.7-16.4,4.6c-5.1-1-7.8-6-9.9-10.2 c-2.1-4.1-3.1-8.7-3.1-13.3c0-4.9,0.3-9.7-0.8-14.6c-0.8-3.8-2.1-8.6,0.2-12.2c3-4.6,26.2-10.4,26.2-10.4l13.7,7.5l10.3,6.8 L408.3,259.6z" style="fill: rgb(244, 169, 162);"/></g><g id="__id284_sgq4m9h8li"><path d="M377.1,229.9c0,0,0.7,3.8,4.6,5.4c0,0-7.4,0.9-11.9-2.5c0,0,2.1,3.2,3.9,3.8c0,0-9.3,0.4-12.3-3 l1.1,5.9c0,0-5.4-5.4-5.3-12c0.1-4.7,2.2-8.9,3.6-13.3c0.9-2.9,2.3-6.1,5.1-7.6c7.4-4,16.5-3.3,24.4-1.3 c6.3,1.6,12.8,3.8,17.9,8c13.4,11.2,8.3,35.9-0.8,48.3c0,0-1.1-11.3-1.3-14.8c-0.2-3.5-3.3-4.4-3.2-2.7 c0.1,1.7-0.2,9.8-1.9,9.8c-1.8-0.1-2.4-14.4-6.6-17.4C390,233.6,380.5,232.7,377.1,229.9z" style="fill: rgb(38, 42, 65);"/></g></g></g><g id="__id285_sgq4m9h8li"><path d="M463.5,407.8H348.6c-2.9-35.8-6.8-91.6-3.6-103.2c3.6-13.3,10.7-18.7,21.6-21.1c3.3-0.7,11-1.5,15-1.8 c3.4,18.3,28.5,0.4,28.5,0.4s6,0.6,10.4,0.9c10.2,0.6,27.7,3.9,31.2,19.1c1.7,7.3,3.7,26.4,5.9,48c1.2,12.2,2.4,25.2,3.7,37.3 C462.1,394.5,462.8,401.5,463.5,407.8z" style="fill: rgb(122, 69, 225);"/></g><g id="__id286_sgq4m9h8li"><path d="M381.6 279.9L386.7 289.1 381.4 293.2 377.2 282" style="fill: rgb(255, 255, 255);"/></g><g id="__id287_sgq4m9h8li"><path d="M386.7 289.1L409.4 277.1 414 282.8 390 295.5z" style="fill: rgb(255, 255, 255);"/></g><g id="__id288_sgq4m9h8li"><path d="M437.2,295.1c-14,15.7,37.4,117.7,49.1,108.6C509.9,399.1,464.8,274.5,437.2,295.1z" style="fill: rgb(244, 169, 162);"/></g><g id="__id289_sgq4m9h8li"><path d="M483.2,347.2c0,0,16.9,42.6,9.7,52c-7.3,9.5-77.2,14.9-77.2,14.9l-3-19.2c0,0,48.6-11.9,48.7-12.7 c0.1-0.7-11.8-21.7-11.8-21.7L483.2,347.2z" style="fill: rgb(244, 169, 162);"/></g><g><g><g id="__id290_sgq4m9h8li"><path d="M494.3,394.4c0,3.4-2.1,6.4-5,8.1c-22.8,13.1-123.8,14.8-120.9,7.7 C368.2,404.8,494.6,369.1,494.3,394.4z" style="fill: rgb(244, 169, 162);"/></g></g></g><g id="__id291_sgq4m9h8li"><path d="M448.8,363.2C448.8,363.2,448.8,363.2,448.8,363.2c-7.2-13.1-16.2-30.4-18.6-39c0,0-15.8-32.4-4-37.7 c1.6-0.7,4.9-1.9,6.5-1.5c12,2.9,24.5,11.6,33,23.8c5.6,8.1,13.1,23,19.3,38.6c0,0,0,0,0,0L448.8,363.2z" style="fill: rgb(122, 69, 225);"/></g><g id="__id292_sgq4m9h8li"><path d="M341.1,418.3c0.2-0.5,8.2-16.8,17.3-18.3c9.1-1.5,21.5,3,23.2,3s5.5-0.3,5.5-0.3l2.7,10.8 c0,0-7.1-0.1-8.1,1.1s-1.4,2.9-5.2,2.9s-7.6-3.5-12.3-3.5c-4.6,0-8,5.4-12.1,5.4S341.1,418.3,341.1,418.3z" style="fill: rgb(244, 169, 162);"/></g></g></g><g id="__id293_sgq4m9h8li"><path d="M345 330.2H346V366.09999999999997H345z" transform="matrix(1 -.00787 .00787 1 -2.73 2.73)" style="fill: rgb(38, 42, 65);"/></g><g id="__id294_sgq4m9h8li"><path d="M440.2 330.5H441.2V365.2H440.2z" transform="rotate(-27.884 440.733 347.81)" style="fill: rgb(38, 42, 65);"/></g></g></g></svg>