<svg xmlns="http://www.w3.org/2000/svg" xmlns:xlink="http://www.w3.org/1999/xlink" preserveAspectRatio="xMidYMid meet" version="1.0" viewBox="0.0 -0.2 321.5 404.9" zoomAndPan="magnify" style="fill: rgb(0, 0, 0);" original_string_length="9773"><g id="__id944_su2ebj1caa"><path d="M8.2,150.1c0,58.6,28.1,107.4,65.2,117.4c0.9,0.2,1.5,1,1.5,1.9s-0.6,1.7-1.5,1.9C36.4,281.3,8.2,330,8.2,388.7 c0,0.6,0,1.2,0,1.8h158.6c0-0.6,0-1.2,0-1.8c0-58.6-28.1-107.4-65.2-117.4c-0.9-0.2-1.5-1-1.5-1.9s0.6-1.7,1.5-1.9 c37.1-10,65.2-58.8,65.2-117.4c0-0.6,0-1.2,0-1.8H8.3C8.3,148.9,8.2,149.5,8.2,150.1L8.2,150.1z M79.1,51.4c2.1-0.8,4.4-2,6.4-1.1 c2.5,1.1,2.9,4.5,2.8,7.3C88,73,87.8,88.5,87.5,104c0,2.4-0.3,5.1-2.1,6.6c-1.6,1.2-3.9,1.1-5.9,0.9c-4.8-0.5-9.5-1-14.3-1.6 c-2-0.2-5.4,1.4-7,0.2c-2.4-1.7-1.8-6.8-2.2-9.8c-1.2-9-0.9-18.2,0.7-27.1c0.8-4.5,2-9,3.5-13.3c0.9-2.5,2.2-8.7,5.2-9.3 c1.9-0.4,4.4,1.3,6.3,1.5C74.1,52.5,76.7,52.2,79.1,51.4L79.1,51.4z" style="fill: rgb(243, 243, 243);"/></g><g id="__id945_su2ebj1caa"><path d="M42.8,209.4c-6.9,0-11.3,7.2-8.2,13.4c9.7,19.5,24.2,33.5,40.7,38.2c4.5,1.3,8,5,9,9.6c0.2,1.6,1.4,2.9,2.8,3.1 c1.7,0.2,3.5-1.1,3.7-3.1c1-4.6,4.4-8.3,9-9.6c16.6-4.7,31-18.7,40.7-38.2c3.1-6.2-1.3-13.4-8.2-13.4H42.8L42.8,209.4z M80.8,336.3 l-53.5,35.5c-5.7,3.8-3,12.6,3.8,12.6H144c6.8,0,9.5-8.9,3.8-12.6l-53.5-35.5C90.2,333.6,84.9,333.6,80.8,336.3L80.8,336.3z" style="fill: rgb(129, 189, 222);"/></g><g id="__id946_su2ebj1caa"><path d="M127.2,326.9h112.5v77.8H127.2V326.9z" style="fill: rgb(27, 75, 157);"/></g><g id="__id947_su2ebj1caa"><path d="M254.7,250.9l19.1-19.1l2.4,2.4l-19.1,19.1L254.7,250.9z M271.1,383.3c-0.8,2.8-0.6,7.5,1.5,9.5s4.5,4,7.2,5.2 c4.5,1.9,6,6.7,6,6.7h-16.6c0,0-1.9-0.1-2.7-0.4c-1.6-0.7-2.3-3.1-2.7-4.8s-1.1-3.7-2.5-4.9c-0.5,3-1.4,10.1-1.4,10.1l-5.2,0 c0,0,1.3-14.8,1.9-20.8C261.2,383.3,266.6,383.2,271.1,383.3L271.1,383.3z M304.6,383.5c-0.6,2.8,0.5,7.4,2.7,9.4s4.7,3.9,7.5,4.8 c4.8,1.6,6.7,6.9,6.7,6.9l-16.7,0c0,0-1.9,0-2.7-0.3c-1.7-0.7-2.7-2.7-3.1-4.4s-1.3-3.7-2.7-4.7c-0.3,3.1-0.9,9.4-0.9,9.4h-5.1 c0,0,0.6-13.9,0.9-19.9C295.5,384,300.1,383.7,304.6,383.5L304.6,383.5z M127.2,326.9h112.5v13.4H127.2V326.9z" style="fill: rgb(0, 33, 57);"/></g><g id="__id948_su2ebj1caa"><path d="M5.8,384.5h163.6c3.2,0,5.8,2.6,5.8,5.8v0.4c0,3.2-2.6,5.8-5.8,5.8H5.8c-3.2,0-5.8-2.6-5.8-5.8v-0.4 C0,387.1,2.6,384.5,5.8,384.5z M5.8,142.4h163.6c3.2,0,5.8,2.6,5.8,5.8v0.4c0,3.2-2.6,5.8-5.8,5.8H5.8c-3.2,0-5.8-2.6-5.8-5.8v-0.4 C0,145,2.6,142.4,5.8,142.4z M99.3,208.7c-2.6-0.9-5.2-1.8-7.8-2.7c-0.9-0.3-1.8-0.6-2.5-1.2c-2.4-1.9-2.2-5.6-1.6-8.6 c-6.7-0.6-13.3-1-20-1.2c-0.6,1-0.3,2.5-0.5,3.7h0c-0.9,6.5-1.8,13-2.7,19.5c14.3,1.7,28.8,2.2,43.3,1.5c1.8-2,0.8-5.2-1-7.2 C104.5,210.5,101.9,209.6,99.3,208.7z M164.3,189.2c-2.5-1-5.4-0.6-8-0.2c-2.7,0.4-5.5,0.8-8.2,1.1c-0.9,0.1-1.9,0.3-2.8,0.1 c-3-0.6-4.5-4-5.4-7c-6.2,2.5-12.3,5.1-18.4,7.9c-0.1,1.2,0.8,2.4,1.2,3.5c2.1,6.2,4.2,12.4,6.3,18.6c13.6-4.9,26.8-11,39.3-18.1 C169.2,192.6,166.8,190.1,164.3,189.2z" style="fill: rgb(0, 33, 57);"/></g><g id="__id949_su2ebj1caa"><path d="M93.5,108.3c4.1,0.1,6.6,7.8,10.6,8.7s14.4,4.7,17.2,7.8c2.9,3.1,4.3,7.2,5.7,11.2 c5.6,16.1,11.1,32.2,16.8,48.4c-7.4,7-16.6,11.1-26.7,12.2c-3-14-6-28-11.3-41.3c-2.6-6.4-6-13.4-14-12.9 c-0.2,8.9-0.3,17.9-0.5,26.8c-0.2,9.1-0.4,18.3-2.2,27.2c-8.8,2.5-17.5,2.1-26.6,1c4.1-17.8,5.2-36.7,2.2-54.7 c-4.1-0.4-8.2,0-12.3-0.5s-8.3-2.1-10.6-5.5c-1.5-2.3-2-5.2-1.8-7.9c0.2-2.8,3.5-16.2,4.2-18.8C62.6,107.3,74.8,107,93.5,108.3 L93.5,108.3z" style="fill: rgb(27, 75, 157);"/></g><g id="__id950_su2ebj1caa"><path d="M86.8,37.8c3.1-0.4,5.4-2,6-3.3c1.2-2.2,1.7-5.7,1.4-8.1s-0.5-3.6-0.3-6c0.3-3,1.3-4.8,1-7.8 c-0.4-3.4-3.2-7.9-6.2-9.5s-6.6-1.9-10-1.5c-4.2,0.4-8.3,3.1-10.3,6.8c-2,3.7-2.3,8.1-2.1,12.4s1.1,8.4,1.3,12.6s-0.2,8.6-2.2,12.3 c-1.6,2.8-1.2,6.7,1.1,9.1s5.6,3.4,8.8,3.5c1.9,0.1,3.9-0.1,5.5-1.1c3.1-1.9,4-6,4.1-9.6c0-2.4-0.4-6.9,0.8-9 C85.9,38.2,86.3,37.9,86.8,37.8L86.8,37.8z M61.7,97.6c1.8,1.1,3.5,2.1,5.3,3.2c1,0.6,2.3,0.1,3.5,0c0.9,0,1.8,0,2.7,0.3 c1,0.4,1.8,1.3,2.6,2.2c0.9,1.1,2.1,2,3.2,2.9c1,0.8,3.8,2.8,3.4,4.3c0,0.2-0.1,0.3-0.2,0.5c-0.4,0.4-1.4,0.1-2,0.3 c-0.4,0.1-0.6,1-0.9,1.2c-0.8,0.6-1.6,0.5-2.3,1.1c-0.4,0.3-0.7,0.5-1.1,0.6c-0.8,0.2-2.7-1.4-3.3-2c-0.9-0.9-3.5-3.2-4.5-3.8 c-0.5-0.3-5.2-0.7-5.8-0.8c-2.8-0.6-3.7-0.9-5-1.4c-3.4-1.3-6.9-2.8-10.6-4.2C48.5,98.8,59.7,100.8,61.7,97.6L61.7,97.6z M213.9,234.8c-0.1-1.4,2.2-3.9,3.7-4.1s2.9,0.3,4.3,0.1c2.2-0.3,4.1-2.3,4.3-4.5c0.1-1.4-0.2-3,0.9-3.9c0.3-0.2,0.7-0.3,1.1-0.6 c1.2-0.8,1.1-2.7,0.4-4s-1.3-2.8-1.6-4.2c-0.3-1.4,0.5-2.7,0.7-4.1c0.4-1.9,0.2-3.7,0-5.6c-0.2-2.1-1.1-4.1-2.3-5.8 c-0.9-1.4-2.3-2.4-3.9-3.2c-4.8-2.3-10.7-1.7-15.1,1.2s-7.3,7.9-7.8,13.2s1.4,10.6,4.6,14.8c-0.2,1.5-0.6,4.2-0.9,5.7 c0.7,2.2,1.9,3.5,3.9,4.5S211.7,235.6,213.9,234.8L213.9,234.8z" style="fill: rgb(219, 162, 137);"/></g><g id="__id951_su2ebj1caa"><path d="M110.5,85.6L110.5,85.6c-0.9,5.6-2.1,11.7-5.3,16.5c-3.1,4.7-8.1,7.7-13,10.5c-2.7,1.5-5.4,2.8-8.5,2.5 c-1.8-22.5-3.1-45.2,1.1-67.4c0.2-1,8.1,0.9,8.8,1.1c4.3,1,8.5,2.2,10.8,6.4c1.4,2.6,2,5.6,2.5,8.5c0.7,3.7,1.4,7.2,2.4,10.7 C110.4,78.1,111.1,81.8,110.5,85.6z M65.4,80.2c-0.1-12.1,1.5-24,0.7-36.1c-0.1-1.5-20,1.6-21.8,2.1c-5.2,1.4-7.5,8.3-9.7,12.7 c-3.2,6.5-5.8,13-8,19.9c-0.8,2.3-1.9,4.7-2.1,7.1c-0.2,2.2,0.3,4.5,1.9,6.1c0.7,0.7,7.2,6.3,12.1,9.4c-0.6,5.4-0.1,5.2-1.3,13.8 c7.2,3.5,19.7,3.1,27.4,1.1l0,0c0.1-2.3,0.1-4.4,0.2-6.6c1.4,0.4,2.6,0.8,3.6,1.1c2-4.7,3.4-6.4,4.9-10.4c-2.6-2-5.6-4.2-8-6.1 C65.4,89.6,65.5,85.1,65.4,80.2z" style="fill: rgb(0, 33, 57);"/></g><g id="__id952_su2ebj1caa"><path d="M187.3,347.8h16.3c0.5,0,1,0.4,1,1v10.2c0,0.5-0.4,1-1,1h-16.3c-0.5,0-1-0.4-1-1v-10.2 C186.3,348.2,186.8,347.8,187.3,347.8z M162.8,364.4h16.3c0.5,0,1,0.4,1,1v10.2c0,0.5-0.4,1-1,1h-16.3c-0.5,0-1-0.4-1-1v-10.2 C161.9,364.8,162.3,364.4,162.8,364.4z M187.3,364.4h16.3c0.5,0,1,0.4,1,1v10.2c0,0.5-0.4,1-1,1h-16.3c-0.5,0-1-0.4-1-1v-10.2 C186.3,364.8,186.8,364.4,187.3,364.4z M162.8,381h16.3c0.5,0,1,0.4,1,1v10.2c0,0.5-0.4,1-1,1h-16.3c-0.5,0-1-0.4-1-1v-10.2 C161.9,381.4,162.3,381,162.8,381z M187.3,381h16.3c0.5,0,1,0.4,1,1v10.2c0,0.5-0.4,1-1,1h-16.3c-0.5,0-1-0.4-1-1v-10.2 C186.3,381.4,186.8,381,187.3,381z M308.4,385.4c-1.4-3.8-18.2-48.1-20.4-54.9c-1.7-5.4-4.1-10.6-6.7-15.6 c-2.4-4.6-5.9-8.9-10.7-11.1l0,0c0,0,0,0.1-0.1,0.1c-5.1-3.5-12.4-4.2-18.5-4.5c-11.2-0.5-22.4,0.2-33.6-1.1 c-1.5-0.2-3.1-0.4-4.3-1.3c-1.2-0.9-2.3-6.7-1.5-8c0-1.4-25-3.4-26.9-1.7l0,0c-1.6,4.6-3.8,11.6-5.4,16.1c-1.8,5.2-3.3,10.5-1.8,16 c1.4,5,5.1,7.4,10.1,7.8c3.5,0.3,7,0.4,10.5,0.4c8.9,0.1,17.9,0,26.8-0.2c5.7-0.1,11.3-0.3,17-0.5c0.1,0,0.2,0,0.3,0 c2.1-0.1,4.5-0.3,6.2,1.3c0.9,0.9,1.5,2.1,1.7,3.3c2.6,15.7,3.1,52.9,3.1,52.9h18.9c0.4-4.1,1.4-17.7,2.2-31.5 c4.6,12.2,12.4,31.8,12.4,31.8L308.4,385.4z M266.2,220.9c2.6-2.3,4.2-5.6,4.2-9.4c0-6.9-5.6-12.5-12.5-12.5s-12.5,5.6-12.5,12.5 s5.6,12.5,12.5,12.5c1.1,0,2.1-0.1,3.1-0.4l6.2,6.2L266.2,220.9z" style="fill: rgb(243, 243, 243);"/></g><g id="__id953_su2ebj1caa"><path d="M183.7,288.7c-1-0.2-2-0.5-2.7-1.3c-1.2-1.4-0.7-3.5,0-5.3c1.8-4.6,4-9.2,4.8-14.2c0.6-3.9,0.4-7.9,0.4-11.9 s0.3-8.1,2-11.7s5.4-7.3,9.3-7.8c1.5-2.5,2.9-5.1,4.1-7.8c5,1.8,10.1,3.6,15.1,5.4c-0.6,2.3-1.1,4.6-1.2,6.9c-0.2,3.5,1,6.7,2.8,9.8 c2.1,3.6,5.2,6.7,5.8,10.7c0.4,2.3,0.1,4.8-1.2,6.8c-1.2,1.9-2.9,3.4-4.3,5.2c-3.2,4.1-5.1,10.4-3.8,15.5c0.2,0.7,0.5,1.5,0.1,2.2 c-0.4,0.7-1.3,0.9-2.1,1C211.1,292.6,191.5,290.5,183.7,288.7L183.7,288.7z" style="fill: rgb(27, 75, 157);"/></g><g id="__id954_su2ebj1caa"><path d="M211.8,347.8h16.3c0.5,0,1,0.4,1,1v10.2c0,0.5-0.4,1-1,1h-16.3c-0.5,0-1-0.4-1-1v-10.2 C210.8,348.2,211.2,347.8,211.8,347.8z M138.3,364.4h16.3c0.5,0,1,0.4,1,1v10.2c0,0.5-0.4,1-1,1h-16.3c-0.5,0-1-0.4-1-1v-10.2 C137.4,364.8,137.8,364.4,138.3,364.4z M211.8,364.4h16.3c0.5,0,1,0.4,1,1v10.2c0,0.5-0.4,1-1,1h-16.3c-0.5,0-1-0.4-1-1v-10.2 C210.8,364.8,211.2,364.4,211.8,364.4z M138.3,381h16.3c0.5,0,1,0.4,1,1v10.2c0,0.5-0.4,1-1,1h-16.3c-0.5,0-1-0.4-1-1v-10.2 C137.4,381.4,137.8,381,138.3,381z M255.5,250.5c0.7-1.5,2.3-2.6,3.4-3.8c0.1-0.1,0.2-0.3,0.2-0.4c0-0.2-0.3-0.3-0.5-0.4 c-1.2-0.2-2.8,0.9-3.8,1.4c-1.3,0.8-2.5,1.7-3.5,2.9c-0.8,1-1.5,2.1-2.1,3.2c-0.5,1-0.8,2.5-1.5,3.3c-0.7,0.7-2,1.2-2.8,1.7 c-3.6,2.2-17.7,10.9-21.5,11.1c-2,0.1-6.5-9-6.5-9c0,0-14.6,7.1-14.6,7.1c2.4,3.7,5.5,7.4,8.1,11c2.2,3,5.6,5.2,9.3,5.8 c4.4,0.7,7.9-1,11.5-3.3c6.2-3.9,11.3-9,16.8-13.8c1.8-1.6,3.5-3.3,5.7-4.2c2.3-0.9,5.6-2.4,7-4.5c1.1-1.7,1.3-3.8,2.3-5.6 c1.2-2.1,2.6-4,4.2-5.8c0.8-0.9,3.4-3.1,1.3-4.1c-1.4-0.7-3.2,1.8-4.1,2.6c-1.2,1.2-2.5,2.5-3.8,3.6c-0.9,0.7-2.2,2.3-3.3,2.4 C256.1,252,254.9,251.6,255.5,250.5L255.5,250.5z" style="fill: rgb(219, 162, 137);"/></g><g id="__id955_su2ebj1caa"><path d="M141.9,80.3l-6,38.1H90h-2.5H65.4v-4.8h22.9l5.3-33.3H141.9z M227.6,208.2c0.5-0.7,0.8-1.6,0.9-2.6 c0.2-3.2-1.5-7-3.9-9c-3.8-3.2-8.9-4.8-13.8-4.5c-4.6,0.3-9.1,2.5-12.4,5.8c-3.7,3.8-5.7,8.1-6.2,13.4c-0.2,2.3-0.2,4.8-1.4,6.8 c-1.4,2.4-4.2,3.6-5.9,5.8c-1.4,1.8-1.9,4.2-1.5,6.5c0.6,2.6,2.4,3.8,4.1,5.4c-1.1,1.5-1.5,3.7-1,5.5c0.5,1.8,1.9,3.3,3.7,3.9 c2.1,0.7,4.3-0.3,5.8-1.9c0.3-0.4,2-3.5,2.2-3.5c5,0,9.4-3.8,11.3-8.3c1.4-3.3,1.7-6.9,1.5-10.4c-0.1-1.1,0.1-3.4-0.7-4.3 c-1-1-2.4-0.7-3.2-2.2c-0.6-1.1-0.6-2.6,0.1-3.7c0.6-0.9,1.6-1.6,2.7-1.5s2.1,1,2,2.1c0,1,7.2,0.7,7.9,0.6 C222.5,211.5,226,210.6,227.6,208.2L227.6,208.2z" style="fill: rgb(129, 189, 222);"/></g><g id="__id956_su2ebj1caa"><path d="M67.5,31.1c1.7-1.8,3.2-4.2,3.6-6.6c-1.4-0.3-2.6-1.2-3.4-2.4c-0.4-0.7-0.6-1.4-0.5-2.2c0.1-1.1,0.9-2,1.9-2.3 s2.2,0,2.9,0.8s0.9,2,0.5,3c0.4,1.1,1.6,1.5,2.7,1.1s1.9-1.3,2.4-2.4s0.8-2.2,1.1-3.3s0.9-2.2,1.9-2.9c1.1-0.9,2.7-1,4.1-1.1 c3.5-0.2,7.3-0.4,10.4,1.4c0.7-3,0.7-6.5-1-9.1c-1.2-1.9-3.1-3.2-5.2-4s-4.3-1-6.5-1.2c-2.5-0.1-5.1,0-7.6,0.3 c-2.3,0.3-4.5,1.2-6.4,2.6C64,6.3,62.6,11.1,62,16.3c-0.2,1.6,0.1,3.4,0.5,4.9C63.3,24.8,65.5,28,67.5,31.1L67.5,31.1z M149.7,54.9 c0,6.9-5.6,12.5-12.5,12.5c-0.3,0-0.5,0-0.8,0l-5.6,7.1v-8.8c-3.7-2.2-6.1-6.2-6.1-10.7c0-6.9,5.6-12.5,12.5-12.5 S149.7,48,149.7,54.9z" style="fill: rgb(27, 75, 157);"/></g></svg>