<?xml version="1.0" encoding="utf-8"?>
<!-- Generator: Adobe Illustrator 25.0.0, SVG Export Plug-In . SVG Version: 6.00 Build 0)  -->
<svg version="1.1" id="Layer_1" xmlns="http://www.w3.org/2000/svg" xmlns:xlink="http://www.w3.org/1999/xlink" x="0px" y="0px"
	 viewBox="0 0 256 256" style="enable-background:new 0 0 256 256;" xml:space="preserve">
<style type="text/css">
	.st0{fill:#E21E69;}
	.st1{fill:#FB3D80;}
	.st2{fill:#FFA50A;}
	.st3{fill:#FEC502;}
	.st4{fill:#D9E7EC;}
	.st5{fill:#FFFFFF;}
	.st6{fill:#9FACBA;}
	.st7{fill:#C5D3DD;}
	.st8{fill:#0055CA;}
	.st9{fill:#00C53B;}
	.st10{fill:#04B532;}
	.st11{fill:#003278;}
	.st12{fill:#00429C;}
	.st13{fill:#0066ED;}
	.st14{fill:#F5F0F0;}
	.st15{fill:#00B7F0;}
	.st16{fill:#0091C8;}
	.st17{fill:#8757F3;}
	.st18{fill:#6A2BC2;}
	.st19{fill:#A55A3C;}
	.st20{fill:#783C28;}
	.st21{fill:#B6FFF6;}
	.st22{fill:#97F4EC;}
</style>
<g>
	<circle class="st0" cx="125.3" cy="133.5" r="122.5"/>
	<circle class="st1" cx="119.6" cy="141.8" r="100"/>
	<path class="st2" d="M72.9,194.5H29.8c-2.8,0-5-2.2-5-5V5c0-2.8,2.2-5,5-5h43.1c2.8,0,5,2.2,5,5v184.5
		C77.9,192.3,75.7,194.5,72.9,194.5z"/>
	<path class="st3" d="M191.2,194.5H73.3c-2.8,0-5-2.2-5-5V5c0-2.8,2.2-5,5-5h117.9c2.8,0,5,2.2,5,5v184.5
		C196.2,192.3,193.9,194.5,191.2,194.5z"/>
	<path class="st4" d="M230.9,210.1H64.6c-1.4,0-2.5-1.1-2.5-2.5V18.1c0-1.4,1.1-2.5,2.5-2.5H231c1.4,0,2.5,1.1,2.5,2.5v189.5
		C233.4,209,232.3,210.1,230.9,210.1z"/>
	<path class="st4" d="M62.9,222.8H50.5c-1.4,0-2.5-1.1-2.5-2.5V30.8c0-1.4,1.1-2.5,2.5-2.5h12.4c1.4,0,2.5,1.1,2.5,2.5v189.5
		C65.4,221.7,64.3,222.8,62.9,222.8z"/>
	<path class="st5" d="M216.9,222.8H63.2c-1.4,0-2.5-1.1-2.5-2.5V30.8c0-1.4,1.1-2.5,2.5-2.5h153.7c1.4,0,2.5,1.1,2.5,2.5v189.5
		C219.4,221.7,218.2,222.8,216.9,222.8z"/>
	<path class="st6" d="M130.5,56.5H78c-2.1,0-3.8-1.7-3.8-3.8S75.9,49,78,49h52.5c2.1,0,3.8,1.7,3.8,3.8
		C134.2,54.8,132.5,56.5,130.5,56.5z"/>
	<path class="st6" d="M110.5,71.5H78c-2.1,0-3.8-1.7-3.8-3.8S75.9,64,78,64h32.5c2.1,0,3.8,1.7,3.8,3.8
		C114.2,69.8,112.5,71.5,110.5,71.5z"/>
	<g>
		<path class="st7" d="M130.5,94H78c-2.1,0-3.8-1.7-3.8-3.8s1.7-3.8,3.8-3.8h52.5c2.1,0,3.8,1.7,3.8,3.8
			C134.2,92.3,132.5,94,130.5,94z"/>
		<path class="st7" d="M130.5,109H78c-2.1,0-3.8-1.7-3.8-3.8s1.7-3.8,3.8-3.8h52.5c2.1,0,3.8,1.7,3.8,3.8
			C134.2,107.3,132.5,109,130.5,109z"/>
		<path class="st7" d="M166.5,124H78c-2.1,0-3.8-1.7-3.8-3.8s1.7-3.8,3.8-3.8h88.5c2.1,0,3.8,1.7,3.8,3.8
			C170.2,122.3,168.5,124,166.5,124z"/>
	</g>
	<path class="st6" d="M126.5,154H78c-2.1,0-3.8-1.7-3.8-3.8s1.7-3.8,3.8-3.8h48.5c2.1,0,3.7,1.7,3.7,3.8S128.5,154,126.5,154
		L126.5,154z"/>
	<path class="st6" d="M95,201.3H78c-2.1,0-3.8-1.7-3.8-3.8s1.7-3.8,3.8-3.8h17c2.1,0,3.8,1.7,3.8,3.8S97.1,201.3,95,201.3z"/>
	<path class="st8" d="M95,185H78c-2.1,0-3.8-1.7-3.8-3.8s1.7-3.8,3.8-3.8h17c2.1,0,3.8,1.7,3.8,3.8S97.1,185,95,185z"/>
	<path class="st8" d="M106,185c-2.1,0-3.8-1.7-3.8-3.8s1.7-3.8,3.8-3.8s3.8,1.7,3.8,3.8S108.1,185,106,185z"/>
	<path class="st7" d="M186.5,139H78c-2.1,0-3.8-1.7-3.8-3.8s1.7-3.8,3.8-3.8h108.5c2.1,0,3.8,1.7,3.8,3.8
		C190.2,137.3,188.5,139,186.5,139z"/>
	<g>
		<path class="st9" d="M250.5,207.1c0,8.8-2.5,17.1-6.8,24.1c-0.6,1-1.5,1.9-2.5,2.5c-7,4.3-15.3,6.8-24.1,6.8
			c-25.4,0-46.2-20.8-46.2-46.2c0-8.8,2.5-17.1,6.8-24.1c0.6-1,1.5-1.9,2.5-2.5c7-4.3,15.2-6.8,24.1-6.8
			C229.7,160.9,250.5,181.6,250.5,207.1z"/>
		<path class="st10" d="M244.2,230.4c-8,13.7-22.9,22.8-39.8,22.8c-25.5,0-46.2-20.7-46.2-46.2c0-17,9.2-31.8,22.8-39.8
			c-4,6.9-6.3,14.8-6.3,23.3c0,25.5,20.7,46.2,46.2,46.2C229.3,236.7,237.3,234.4,244.2,230.4z"/>
	</g>
	<path class="st11" d="M106.8,200.5c-2-2-2-5.1,0-7.1l21.2-21.2c2-2,5.1-2,7.1,0s2,5.1,0,7.1l-21.2,21.2
		C111.9,202.4,108.8,202.4,106.8,200.5z"/>
	<path class="st12" d="M223.5,90.9l-7.1-7.1c-2-2-2-5.1,0-7.1l21.2-21.2c2-2,5.1-2,7.1,0l7.1,7.1c2,2,2,5.1,0,7.1l-21.2,21.2
		C228.6,92.8,225.5,92.8,223.5,90.9z"/>
	<path class="st12" d="M117.4,189.9c-3.9-3.9-3.9-10.2,0-14.1l14.1-14.1c3.9-3.9,10.2-3.9,14.1,0c3.9,3.9,3.9,10.2,0,14.1
		l-14.1,14.1C127.7,193.8,121.3,193.8,117.4,189.9L117.4,189.9z"/>
	<path class="st8" d="M127.7,178.9l-7.1-7.1c-1-1-1-2.6,0-3.5l99-99c1-1,2.6-1,3.5,0l7.1,7.1c1,1,1,2.6,0,3.5l-99,99
		C130.2,179.9,128.7,179.9,127.7,178.9L127.7,178.9z"/>
	<path class="st13" d="M135.5,186.7l-7.8-7.8c-1-1-1-2.6,0-3.5l99-99c1-1,2.6-1,3.5,0l7.8,7.8c1,1,1,2.6,0,3.5l-99,99
		C138,187.7,136.4,187.7,135.5,186.7L135.5,186.7z"/>
	<path class="st12" d="M180.7,147.1l-10.6-10.6c-1-1-1-2.6,0-3.5l46-46c1-1,2.6-1,3.5,0l10.6,10.6c1,1,1,2.6,0,3.5l-46,46
		C183.3,148.1,181.7,148.1,180.7,147.1L180.7,147.1z"/>
</g>
<g>
	<path class="st1" d="M339.7,35.3c-5.2-3.3-11.4-5.2-18-5.2c-7.3,0-14.1,2.3-19.6,6.3l-3.4,52.4h46c0.9-0.9,1.8-1.8,2.7-2.8
		L339.7,35.3z"/>
	<path class="st0" d="M298.7,88.9h46c0.1-0.1,0.2-0.2,0.4-0.3h-3.8c-6.7,0-12.1-5.4-12.1-12.1v-37l16.6,48.3
		c6-6.1,9.8-14.5,9.8-23.8c0-12.1-6.3-22.7-15.9-28.7l-4.8,1.8l-5.7,2c0-1.5-1.2-2.7-2.7-2.7h-13.2v52.1h-2.8L310,36.4h-8
		c-2.8,2-2.2,7.6-4.3,10.4c-1.8,2.3-6.4,1.7-7.5,4.5c-1.6,3.9-2.5,8.2-2.5,12.7s0.9,8.8,2.5,12.7c0.8,1.9,2.8,3.2,3.9,4.9
		C295.8,84.1,296.6,86.9,298.7,88.9z"/>
	<path class="st3" d="M302.1,36.4c-2.1,1.5-4,3.2-5.7,5.2v44.8c0.7,0.8,1.4,1.5,2.1,2.2h7.8V36.4H302.1z"/>
	<path class="st2" d="M296.5,86.5c0-1.3,1-2.4,2.3-2.6c1.5-0.2,2.7-1.4,2.8-3.1c0-1.6-1.2-3.1-2.8-3.3c-0.8-0.1-1.6,0.1-2.2,0.5
		v-2.7c0-2.4,1.9-4.3,4.3-4.3c1.1,0,1.9-0.9,1.9-1.9V48.7c0-1.1-0.9-1.9-1.9-1.9h-4.3v-5.4c-2.6,2.9-4.7,6.2-6.2,9.9v25.4
		C291.9,80.3,294,83.7,296.5,86.5L296.5,86.5L296.5,86.5z"/>
	<path class="st5" d="M300.8,44.1h-3.9v24.1h3.9c1.1,0,1.9-0.9,1.9-1.9V46C302.7,45,301.8,44.1,300.8,44.1z"/>
	<path class="st14" d="M297.1,66.3V46c0-1.1,0.9-1.9,1.9-1.9h-3.2c-1.1,0-1.9,0.9-1.9,1.9v20.3c0,1.1,0.9,1.9,1.9,1.9h3.2
		C298,68.2,297.1,67.4,297.1,66.3z"/>
	<path class="st2" d="M301.5,78.4c0,1.8-1.5,3.2-3.2,3.2c-1.8,0-3.2-1.4-3.2-3.2c0-1.8,1.5-3.2,3.2-3.2
		C300.1,75.2,301.5,76.6,301.5,78.4z"/>
	<path class="st14" d="M298.3,74.3L298.3,74.3V76l0,0c1.3,0,2.4,1.1,2.4,2.4s-1.1,2.4-2.4,2.4s-2.4-1.1-2.4-2.4v-0.1h-1.7v0.1
		c0,2.3,1.8,4.1,4.1,4.1c2.3,0,4.1-1.8,4.1-4.1C302.4,76.1,300.5,74.3,298.3,74.3z"/>
	<path class="st5" d="M295,79.3c-0.5,0-0.9-0.4-0.9-0.9c0-2.3,1.8-4.1,4.1-4.1c0.5,0,0.9,0.4,0.9,0.9s-0.4,0.9-0.9,0.9
		c-1.3,0-2.4,1.1-2.4,2.4C295.9,78.9,295.5,79.3,295,79.3z"/>
	<path class="st15" d="M325.8,88.6h-10.3V36.4h10.3V88.6z"/>
	<path class="st16" d="M320.3,46.8H316V36.4h-6.2v52.2h6.2v-2.2c0-1.3,1-2.4,2.3-2.6c1.5-0.2,2.7-1.4,2.8-3.1c0-1.6-1.2-3.1-2.8-3.3
		c-0.8-0.1-1.6,0.1-2.2,0.5v-2.7c0-2.4,1.9-4.3,4.3-4.3c1.1,0,1.9-0.9,1.9-1.9V48.7C322.2,47.7,321.4,46.8,320.3,46.8z"/>
	<path class="st5" d="M320.3,44.1h-3.8v24.1h3.8c1.1,0,1.9-0.9,1.9-1.9V46C322.2,45,321.4,44.1,320.3,44.1z"/>
	<path class="st14" d="M316.7,66.3V46c0-1.1,0.9-1.9,1.9-1.9h-3.2c-1.1,0-1.9,0.9-1.9,1.9v20.3c0,1.1,0.9,1.9,1.9,1.9h3.2
		C317.5,68.2,316.7,67.4,316.7,66.3z"/>
	<path class="st16" d="M321.1,78.4c0,1.8-1.4,3.2-3.2,3.2c-1.8,0-3.2-1.4-3.2-3.2c0-1.8,1.5-3.2,3.2-3.2
		C319.6,75.2,321.1,76.6,321.1,78.4z"/>
	<path class="st14" d="M317.8,74.3c-0.1,0-0.1,0-0.2,0V76c0.1,0,0.1,0,0.2,0c1.3,0,2.4,1.1,2.4,2.4s-1.1,2.4-2.4,2.4
		s-2.4-1.1-2.4-2.4c0-0.1,0-0.1,0-0.2c0,0-0.1,0-0.2,0h-1.6c0,0.1,0,0.1,0,0.2c0,2.3,1.8,4.1,4.1,4.1c2.3,0,4.1-1.8,4.1-4.1
		C321.9,76.1,320.1,74.3,317.8,74.3z"/>
	<path class="st5" d="M314.6,79.3c-0.5,0-0.9-0.4-0.9-0.9c0-2.3,1.8-4.1,4.1-4.1c0.5,0,0.9,0.4,0.9,0.9s-0.4,0.9-0.9,0.9
		c-1.3,0-2.4,1.1-2.4,2.4C315.4,78.9,315.1,79.3,314.6,79.3z"/>
	<path class="st17" d="M357.7,83.3l-9.5,3.2l-17-49.4l9.5-3.2L357.7,83.3z"/>
	<path class="st18" d="M341.4,46.8c-0.3-1-1.4-1.5-2.4-1.2l-4.1,1.4l-3.4-9.8l-5.8,2l17,49.4l5.8-2l-0.7-2c-0.4-1.2,0.1-2.6,1.3-3.2
		c1.3-0.7,2.1-2.2,1.6-3.8c-0.5-1.6-2.1-2.5-3.7-2.2c-0.8,0.2-1.5,0.6-1.9,1.2l-0.9-2.6c-0.8-2.2,0.4-4.7,2.7-5.5
		c1-0.3,1.5-1.4,1.2-2.4L341.4,46.8z"/>
	<path class="st5" d="M347.1,63.4l-6.6-19.2c-0.3-1-1.4-1.5-2.4-1.2l-3.5,1.2c0,0,6.4,20.9,7.6,22.1l0.5,0.5l3.1-1.1
		C346.9,65.5,347.4,64.4,347.1,63.4z"/>
	<path class="st14" d="M344.2,66.4c-1,0.3-2.1-0.2-2.4-1.2L335.2,46c-0.3-1,0.2-2.1,1.2-2.4l-3.1,1.1c-1,0.3-1.5,1.4-1.2,2.4
		l6.6,19.2c0.3,1,1.4,1.5,2.4,1.2L344.2,66.4z"/>
	<path class="st18" d="M349.9,75.2c0.6,1.7-0.3,3.5-2,4.1s-3.5-0.3-4.1-2s0.3-3.5,2-4.1S349.3,73.5,349.9,75.2z"/>
	<path class="st14" d="M350.7,74.9c-0.7-2.1-3-3.3-5.2-2.5v1.9c0.2-0.1,0.3-0.2,0.5-0.3c0.3-0.1,0.5-0.1,0.8-0.1
		c1,0,1.9,0.6,2.3,1.6c0.2,0.6,0.2,1.3-0.1,1.8c-0.3,0.6-0.8,1-1.4,1.2s-1.3,0.2-1.8-0.1c-0.6-0.3-1-0.8-1.2-1.4
		c0-0.1,0-0.1-0.1-0.2h-0.1h-1.6c0,0.2,0.1,0.5,0.2,0.7c0.4,1,1.1,1.9,2.1,2.3c0.6,0.3,1.2,0.4,1.8,0.4c0.4,0,0.9-0.1,1.3-0.2
		c1-0.4,1.9-1.1,2.3-2.1C351,77.1,351.1,76,350.7,74.9z"/>
	<path class="st5" d="M343.8,78.2c-0.4,0-0.7-0.2-0.8-0.6c-0.7-2.1,0.4-4.5,2.5-5.2c0.4-0.2,0.9,0.1,1.1,0.5s-0.1,0.9-0.5,1.1
		c-1.2,0.4-1.9,1.8-1.5,3c0.2,0.4-0.1,0.9-0.5,1.1C344,78.2,343.9,78.2,343.8,78.2z"/>
	<path class="st19" d="M322.9,88.5h-24.5c6.1,5.8,14.3,9.4,23.4,9.4c0.4,0,0.8,0,1.1,0V88.5z"/>
	<path class="st20" d="M322.6,88.5c-2.6,0-4.8,2.1-4.8,4.8c0,2.2,1.5,4.1,3.6,4.6c0.1,0,0.2,0,0.3,0c9.1,0,17.3-3.6,23.4-9.4H322.6z
		"/>
	<path class="st14" d="M300.9,51.2h-5.3v-2.1h5.3V51.2z"/>
	<path class="st14" d="M300.9,55.2h-5.3v-2.1h5.3V55.2z"/>
	<path class="st14" d="M300.9,59.2h-5.3V57h5.3V59.2z"/>
	<path class="st21" d="M300.9,50.4h-3.1v-2.1h3.1V50.4z"/>
	<path class="st21" d="M300.9,54.3h-3.1v-2.1h3.1V54.3z"/>
	<path class="st21" d="M300.9,58.3h-3.1v-2.1h3.1V58.3z"/>
	<path class="st22" d="M298.3,50.4h-2.6v-2.1h2.6V50.4z"/>
	<path class="st22" d="M298.3,54.3h-2.6v-2.1h2.6V54.3z"/>
	<path class="st22" d="M298.3,58.3h-2.6v-2.1h2.6V58.3z"/>
	<path class="st14" d="M320.5,51.3h-5.3v-2.1h5.3V51.3z"/>
	<path class="st14" d="M320.5,55.3h-5.3v-2.1h5.3V55.3z"/>
	<path class="st14" d="M320.5,59.3h-5.3v-2.1h5.3V59.3z"/>
	<path class="st21" d="M320.5,50.5h-3.1v-2.1h3.1V50.5z"/>
	<path class="st21" d="M320.5,54.4h-3.1v-2.1h3.1V54.4z"/>
	<path class="st21" d="M320.5,58.4h-3.1v-2.1h3.1V58.4z"/>
	<path class="st22" d="M317.8,50.5h-2.6v-2.1h2.6V50.5z"/>
	<path class="st22" d="M317.8,54.4h-2.6v-2.1h2.6V54.4z"/>
	<path class="st22" d="M317.8,58.4h-2.6v-2.1h2.6V58.4z"/>
	<path class="st14" d="M340.5,49.7l-5,1.8l-0.7-2l5-1.8L340.5,49.7z"/>
	<path class="st14" d="M341.8,53.4l-5,1.8l-0.7-2l5-1.8L341.8,53.4z"/>
	<path class="st14" d="M343.2,57.2l-5,1.8l-0.7-2l5-1.8L343.2,57.2z"/>
	<path class="st21" d="M340.2,48.9l-2.8,1l-0.7-2l2.8-1L340.2,48.9z"/>
	<path class="st21" d="M341.5,52.6l-2.8,1l-0.7-2l2.8-1L341.5,52.6z"/>
	<path class="st21" d="M342.9,56.4l-2.8,1l-0.7-2l2.8-1L342.9,56.4z"/>
	<path class="st22" d="M337.7,49.8l-2.5,0.9l-0.7-2l2.5-0.9L337.7,49.8z"/>
	<path class="st22" d="M339.1,53.5l-2.5,0.9l-0.7-2l2.5-0.9L339.1,53.5z"/>
	<path class="st22" d="M340.4,57.2l-2.5,0.9l-0.7-2l2.5-0.9L340.4,57.2z"/>
</g>
<g>
	<g>
		<path class="st5" d="M236,205.5l-23.9-23.9c-0.7-0.7-1.6-1.1-2.6-1.1s-1.9,0.4-2.6,1.1l-2.2,2.2c-0.7,0.7-1.1,1.6-1.1,2.6
			s0.4,1.9,1.1,2.6l13.9,14h-44.3c-2,0-3.6,1.6-3.6,3.6v3.1c0,2,1.6,3.7,3.6,3.7H219l-14.1,14c-0.7,0.7-1.1,1.6-1.1,2.5
			c0,1,0.4,1.9,1.1,2.5l2.2,2.2c0.7,0.7,1.6,1.1,2.6,1.1s1.9-0.4,2.6-1.1l23.9-23.9c0.7-0.7,1.1-1.6,1.1-2.6
			C237.1,207.1,236.7,206.2,236,205.5z"/>
	</g>
</g>
</svg>
