<?xml version="1.0" encoding="utf-8"?>
<!-- Generator: Adobe Illustrator 25.0.0, SVG Export Plug-In . SVG Version: 6.00 Build 0)  -->
<svg version="1.1" id="Layer_1" xmlns="http://www.w3.org/2000/svg" xmlns:xlink="http://www.w3.org/1999/xlink" x="0px" y="0px"
	 viewBox="0 0 512 512" style="enable-background:new 0 0 512 512;" xml:space="preserve">
<style type="text/css">
	.st0{fill:#65BEFC;}
	.st1{fill:#0077F0;}
	.st2{fill:#0066ED;}
	.st3{fill:#0055CA;}
	.st4{fill:#FFC143;}
	.st5{fill:#FFB509;}
	.st6{fill:#00C53B;}
	.st7{fill:#4BCD5C;}
	.st8{fill:#9FACBA;}
	.st9{fill:#B6C4CF;}
	.st10{fill:#FFAA00;}
	.st11{fill:#00429C;}
	.st12{fill:#D9E7EC;}
	.st13{fill:#FFFFFF;}
	.st14{fill:#003278;}
	.st15{fill:#FFCD6B;}
</style>
<g>
	<path class="st0" d="M98.9,439h309c50.4-44.9,82.1-110.2,82.1-183c0-135.3-109.7-245-245-245S0,120.7,0,256
		c0,68,27.7,129.6,72.5,174c0.8,0.8,18.4,1.6,19.3,2.4C94.1,434.6,96.5,436.8,98.9,439z"/>
	<path class="st1" d="M84.5,31.9h420v295h-420V31.9z"/>
	<path class="st2" d="M84.5,31.9h34v295h-34V31.9z"/>
	<path class="st3" d="M217.5,87.5h135c4.1,0,7.5-3.4,7.5-7.5s-3.4-7.5-7.5-7.5h-135c-4.1,0-7.5,3.4-7.5,7.5S213.4,87.5,217.5,87.5z"
		/>
	<path class="st3" d="M217.5,117.5h95c4.1,0,7.5-3.4,7.5-7.5s-3.4-7.5-7.5-7.5h-95c-4.1,0-7.5,3.4-7.5,7.5S213.4,117.5,217.5,117.5z
		"/>
	<circle class="st4" cx="155" cy="95" r="25"/>
	<circle class="st5" cx="155" cy="95" r="15"/>
	<path class="st6" d="M159.1,211.9H140c-5.5,0-10-4.5-10-10V160c0-5.5,4.5-10,10-10h19.1c5.5,0,10,4.5,10,10v41.9
		C169.1,207.4,164.6,211.9,159.1,211.9L159.1,211.9z"/>
	<path class="st7" d="M217.3,211.9h-59.6c-5.5,0-10-4.5-10-10V160c0-5.5,4.5-10,10-10h59.6c5.5,0,10,4.5,10,10v41.9
		C227.3,207.4,222.8,211.9,217.3,211.9z"/>
	<path class="st5" d="M273.4,211.9h-17.6c-5.5,0-10-4.5-10-10V160c0-5.5,4.5-10,10-10h17.6c5.5,0,10,4.5,10,10v41.9
		C283.4,207.4,278.9,211.9,273.4,211.9z"/>
	<path class="st4" d="M333.1,211.9h-59.6c-5.5,0-10-4.5-10-10V160c0-5.5,4.5-10,10-10h59.6c5.5,0,10,4.5,10,10v41.9
		C343.1,207.4,338.7,211.9,333.1,211.9z"/>
	<path class="st8" d="M391.1,211.9h-19.4c-5.5,0-10-4.5-10-10V160c0-5.5,4.5-10,10-10h19.4c5.5,0,10,4.5,10,10v41.9
		C401.1,207.4,396.6,211.9,391.1,211.9z"/>
	<path class="st9" d="M449,211.9h-59.6c-5.5,0-10-4.5-10-10V160c0-5.5,4.5-10,10-10H449c5.5,0,10,4.5,10,10v41.9
		C459,207.4,454.5,211.9,449,211.9z"/>
	<path class="st5" d="M158.1,291.5H140c-5.5,0-10-4.5-10-10v-41.9c0-5.5,4.5-10,10-10h18.1c5.5,0,10,4.5,10,10v41.9
		C168.1,287,163.7,291.5,158.1,291.5z"/>
	<path class="st4" d="M217.3,291.5h-59.6c-5.5,0-10-4.5-10-10v-41.9c0-5.5,4.5-10,10-10h59.6c5.5,0,10,4.5,10,10v41.9
		C227.3,287,222.8,291.5,217.3,291.5z"/>
	<path class="st8" d="M274.4,291.5h-18.6c-5.5,0-10-4.5-10-10v-41.9c0-5.5,4.5-10,10-10h18.6c5.5,0,10,4.5,10,10v41.9
		C284.4,287,280,291.5,274.4,291.5z"/>
	<path class="st9" d="M333.1,291.5h-59.6c-5.5,0-10-4.5-10-10v-41.9c0-5.5,4.5-10,10-10h59.6c5.5,0,10,4.5,10,10v41.9
		C343.1,287,338.7,291.5,333.1,291.5z"/>
	<path class="st6" d="M392.8,291.5h-21.1c-5.5,0-10-4.5-10-10v-41.9c0-5.5,4.5-10,10-10h21.1c5.5,0,10,4.5,10,10v41.9
		C402.8,287,398.3,291.5,392.8,291.5z"/>
	<path class="st7" d="M449,291.5h-59.6c-5.5,0-10-4.5-10-10v-41.9c0-5.5,4.5-10,10-10H449c5.5,0,10,4.5,10,10v41.9
		C459,287,454.5,291.5,449,291.5z"/>
	<path class="st10" d="M112.4,450c3.4,2.6,6.9,5.2,10.4,7.6c1.2,0.8-14.7,1.6-13.5,2.4c38.9,25.9,85.5,41,135.7,41
		c56.4,0,108.3-19,149.6-51H112.4z"/>
	<path class="st3" d="M504.5,326.9H117.1v-38.9c0-0.6,0.5-1.1,1.1-1.1h386.3V326.9z"/>
	<path class="st11" d="M84.5,286.9h34v40h-34V286.9z"/>
	<path class="st12" d="M347.5,425H241.5c-8.3,0-15-6.7-15-15v-65.3c0-8.3,6.7-15,15-15h105.9c8.3,0,15,6.7,15,15V410
		C362.5,418.3,355.7,425,347.5,425z"/>
	<path class="st13" d="M200.7,406.7h187.5c8.3,0,15,6.7,15,15c0,5.5-4.5,10-10,10H195.7c-5.5,0-10-4.5-10-10
		C185.7,413.4,192.4,406.7,200.7,406.7z"/>
	<path class="st14" d="M92,315V39.4h405V315h13.1l1.9-1.9V31.9c0-4.1-3.4-7.5-7.5-7.5h-420c-4.1,0-7.5,3.4-7.5,7.5v281.2l3.6,1.9H92
		z"/>
	<path class="st12" d="M140.9,359.7H92c-8.3,0-15-6.7-15-15v-31.6h41.4c19.1,0,34.5,15.5,34.5,34.5
		C153,354.3,147.6,359.7,140.9,359.7z"/>
	<path class="st13" d="M497,359.7H133.5c-8.3,0-15-6.7-15-15v-31.6H512v31.6C512,353,505.3,359.7,497,359.7z"/>
	<path class="st4" d="M165,430H72.5c11.2,11.1,23.5,21.2,36.8,30H165c2.8,0,5-2.2,5-5v-20C170,432.2,167.8,430,165,430z"/>
	<path class="st15" d="M455,460H135c-2.8,0-5-2.2-5-5v-20c0-2.8,2.2-5,5-5h320c2.8,0,5,2.2,5,5v20C460,457.8,457.8,460,455,460z"/>
</g>
</svg>
