<?xml version="1.0" encoding="utf-8"?>
<!-- Generator: Adobe Illustrator 25.0.0, SVG Export Plug-In . SVG Version: 6.00 Build 0)  -->
<svg version="1.1" id="Capa_1" xmlns="http://www.w3.org/2000/svg" xmlns:xlink="http://www.w3.org/1999/xlink" x="0px" y="0px"
	 viewBox="0 0 512 512" style="enable-background:new 0 0 512 512;" xml:space="preserve">
<style type="text/css">
	.st0{fill:#994E04;}
	.st1{fill:#7F3B04;}
	.st2{fill:#67AAE6;}
	.st3{fill:#A3CCEF;}
	.st4{fill:#85BBEB;}
	.st5{fill:#DB2E26;}
	.st6{fill:#EAF3F9;}
	.st7{fill:#C5DEF3;}
	.st8{fill:#FB4A34;}
	.st9{fill:#ED3B2E;}
	.st10{fill:#FA6E62;}
	.st11{fill:#E8834D;}
	.st12{fill:#D66E41;}
	.st13{fill:#365E7D;}
	.st14{fill:#2B4D66;}
	.st15{fill:#407093;}
	.st16{fill:#FFE27A;}
	.st17{fill:#F9CF58;}
</style>
<path class="st0" d="M256,512c67.4,0,128.6-27.1,173.1-70.9H82.9C127.4,484.9,188.6,512,256,512z"/>
<path class="st1" d="M245.5,441.1H82.9c41.7,41.1,98.1,67.5,160.5,70.6C197.7,509.4,199.7,441.1,245.5,441.1z"/>
<path class="st2" d="M82.9,441.1h346.2c45.4-44.7,73.6-106.9,73.6-175.7c0-136.2-110.4-246.7-246.7-246.7S9.3,129.1,9.3,265.3
	C9.3,334.1,37.5,396.3,82.9,441.1z"/>
<path class="st3" d="M440.8,140.5h-24.5c-7.6,97.7-19,239-23,293.3c-0.9,11.9-10.5,21.2-22.2,21.9v0h41.8c28.3-23.4,51.3-53,67-86.7
	C468.5,302.3,452.6,210.3,440.8,140.5z"/>
<path class="st4" d="M416.6,452.5c2.4-2.1,4.9-4.2,7.2-6.4c2.6-3.5,4.2-7.7,4.6-12.3c3.4-46.7,12.4-158,19.6-250.4
	c-2.5-14.9-5-29.3-7.3-42.8h-24.5c-7.6,97.7-19,239-23,293.3c-0.9,11.9-10.5,21.2-22.2,21.9v0h35.1v0
	C410,455.4,413.5,454.3,416.6,452.5z"/>
<path class="st5" d="M416.3,141.5H441c-4.9-29.2-9.1-54.6-12-72.7c-1.8-11.5-9.4-20.9-19.5-25.3c7.9,4.2,13.1,12.9,12.4,22.5
	C420.7,84.3,418.6,110.8,416.3,141.5z"/>
<path class="st6" d="M43.7,139.5C36.3,235.2,25.2,373.6,21,430.3c-1,13.7,9.8,25.4,23.6,25.4h326.2c12.4,0,22.7-9.5,23.6-21.9
	c4-54.4,15.5-196.5,23.1-294.3L43.7,139.5L43.7,139.5z"/>
<path class="st7" d="M54.8,430.3c4.2-56.7,15.3-195.1,22.7-290.8H43.7C36.3,235.2,25.2,373.6,21,430.3c-1,13.7,9.8,25.4,23.6,25.4
	h33.7C64.6,455.7,53.7,444,54.8,430.3z"/>
<path class="st8" d="M399.4,40.8H73c-12.4,0-22.7,9.6-23.6,22c-1.3,18.2-3.4,46.1-5.9,78.8h373.7c2.4-30.7,4.4-57.2,5.7-75.5
	C423.9,52.4,413.1,40.8,399.4,40.8z"/>
<path class="st9" d="M106.8,40.8H73c-12.4,0-22.7,9.6-23.6,22c-1.3,18.2-3.4,46.1-5.9,78.8h33.8c2.5-32.7,4.6-60.6,5.9-78.8
	C84.1,50.4,94.4,40.8,106.8,40.8z"/>
<circle class="st5" cx="128.1" cy="92.1" r="22.3"/>
<path class="st7" d="M148.1,101.7c1.4-2.9,2.2-6.1,2.2-9.6c0-6.6-2.9-12.5-7.5-16.6c-4.3,2.8-9.3,4.4-14.8,4.4
	c-14.9,0-27.1-12.1-27.1-27.1s12.1-27.1,27.1-27.1c10.6,0,19.8,6.1,24.2,15h27.2C174,17.4,153,0,128.1,0C98.9,0,75.2,23.7,75.2,52.8
	s23.7,52.8,52.8,52.8C135.2,105.6,141.9,104.2,148.1,101.7z"/>
<circle class="st5" cx="346.1" cy="92.1" r="22.3"/>
<path class="st7" d="M366.1,101.7c1.4-2.9,2.2-6.1,2.2-9.6c0-6.6-2.9-12.5-7.5-16.6c-4.3,2.8-9.3,4.4-14.8,4.4
	c-14.9,0-27.1-12.1-27.1-27.1s12.1-27.1,27.1-27.1c10.6,0,19.8,6.1,24.2,15h27.2C392,17.4,371,0,346.1,0
	c-29.1,0-52.8,23.7-52.8,52.8s23.7,52.8,52.8,52.8C353.2,105.6,360,104.2,366.1,101.7z"/>
<path class="st10" d="M276.5,98.6h-91.3c-4.1,0-7.5-3.4-7.5-7.5s3.4-7.5,7.5-7.5h91.3c4.1,0,7.5,3.4,7.5,7.5S280.7,98.6,276.5,98.6z
	"/>
<path class="st7" d="M21.3,426.5c-0.1,1.3-0.2,2.6-0.3,3.8c-1,13.7,9.8,25.4,23.6,25.4h326.2c12.4,0,22.7-9.5,23.6-21.9
	c0.2-2.3,0.3-4.7,0.5-7.3L21.3,426.5L21.3,426.5z"/>
<path class="st3" d="M55,426.5H21.3c0,0.5-0.1,1-0.1,1.5c0,0.5-0.1,1-0.1,1.5c0,0.3,0,0.6-0.1,0.8c-1,13.7,9.8,25.4,23.6,25.4h33.7
	c-13.7,0-24.6-11.7-23.5-25.4C54.8,429.1,54.9,427.8,55,426.5z"/>
<g>
	<path class="st2" d="M113.8,237.4H89c-2.6,0-4.8,2-5,4.6l-2.3,24.8c-0.3,3,2.1,5.5,5,5.5h24.9c2.6,0,4.8-2,5-4.6l2.3-24.8
		C119.1,240,116.8,237.4,113.8,237.4z"/>
	<path class="st2" d="M108.4,294.9H83.6c-2.6,0-4.8,2-5,4.6l-2.3,24.8c-0.3,3,2.1,5.5,5,5.5h24.9c2.6,0,4.8-2,5-4.6l2.3-24.8
		C113.7,297.5,111.4,294.9,108.4,294.9z"/>
	<path class="st2" d="M174.5,237.4h-24.9c-2.6,0-4.8,2-5,4.6l-2.3,24.8c-0.3,3,2.1,5.5,5,5.5h24.9c2.6,0,4.8-2,5-4.6l2.3-24.8
		C179.9,240,177.5,237.4,174.5,237.4z"/>
	<path class="st2" d="M169.1,294.9h-24.9c-2.6,0-4.8,2-5,4.6l-2.3,24.8c-0.3,3,2.1,5.5,5,5.5h24.9c2.6,0,4.8-2,5-4.6l2.3-24.8
		C174.4,297.5,172.1,294.9,169.1,294.9z"/>
	<path class="st2" d="M240.7,180h-24.9c-2.6,0-4.8,2-5,4.6l-2.3,24.8c-0.3,3,2.1,5.5,5,5.5h24.9c2.6,0,4.8-2,5-4.6l2.3-24.8
		C246,182.5,243.6,180,240.7,180z"/>
	<path class="st2" d="M235.3,237.4h-24.9c-2.6,0-4.8,2-5,4.6l-2.3,24.8c-0.3,3,2.1,5.5,5,5.5h24.9c2.6,0,4.8-2,5-4.6l2.3-24.8
		C240.6,240,238.2,237.4,235.3,237.4z"/>
	<path class="st2" d="M229.9,294.9H205c-2.6,0-4.8,2-5,4.6l-2.3,24.8c-0.3,3,2.1,5.5,5,5.5h24.9c2.6,0,4.8-2,5-4.6l2.3-24.8
		C235.2,297.5,232.8,294.9,229.9,294.9z"/>
	<path class="st2" d="M301.4,180h-24.9c-2.6,0-4.8,2-5,4.6l-2.3,24.8c-0.3,3,2.1,5.5,5,5.5h24.9c2.6,0,4.8-2,5-4.6l2.3-24.8
		C306.7,182.5,304.4,180,301.4,180z"/>
	<path class="st2" d="M296,237.4h-24.9c-2.6,0-4.8,2-5,4.6l-2.3,24.8c-0.3,3,2.1,5.5,5,5.5h24.9c2.6,0,4.8-2,5-4.6L301,243
		C301.3,240,299,237.4,296,237.4z"/>
	<path class="st2" d="M290.6,294.9h-24.9c-2.6,0-4.8,2-5,4.6l-2.3,24.8c-0.3,3,2.1,5.5,5,5.5h24.9c2.6,0,4.8-2,5-4.6l2.3-24.8
		C295.9,297.5,293.6,294.9,290.6,294.9z"/>
	<path class="st2" d="M103,352.4H78.1c-2.6,0-4.8,2-5,4.6l-2.3,24.8c-0.3,3,2.1,5.5,5,5.5h24.9c2.6,0,4.8-2,5-4.6l2.3-24.8
		C108.3,354.9,106,352.4,103,352.4z"/>
	<path class="st2" d="M163.7,352.4h-24.9c-2.6,0-4.8,2-5,4.6l-2.3,24.8c-0.3,3,2.1,5.5,5,5.5h24.9c2.6,0,4.8-2,5-4.6l2.3-24.8
		C169,354.9,166.7,352.4,163.7,352.4z"/>
</g>
<path class="st3" d="M224.5,352.4h-24.9c-2.6,0-4.8,2-5,4.6l-2.3,24.8c-0.3,3,2.1,5.5,5,5.5h24.9c2.6,0,4.8-2,5-4.6l2.3-24.8
	C229.8,354.9,227.4,352.4,224.5,352.4z"/>
<g>
	<path class="st2" d="M362.1,180h-24.9c-2.6,0-4.8,2-5,4.6l-2.3,24.8c-0.3,3,2.1,5.5,5,5.5h24.9c2.6,0,4.8-2,5-4.6l2.3-24.8
		C367.4,182.5,365.1,180,362.1,180z"/>
	<path class="st2" d="M356.7,237.4h-24.9c-2.6,0-4.8,2-5,4.6l-2.3,24.8c-0.3,3,2.1,5.5,5,5.5h24.9c2.6,0,4.8-2,5-4.6l2.3-24.8
		C362,240,359.7,237.4,356.7,237.4z"/>
</g>
<g>
	<path class="st3" d="M119.2,180H94.4c-2.6,0-4.8,2-5,4.6L87,209.3c-0.3,3,2.1,5.5,5,5.5h24.9c2.6,0,4.8-2,5-4.6l2.3-24.8
		C124.5,182.5,122.2,180,119.2,180z"/>
	<path class="st3" d="M179.9,180h-24.9c-2.6,0-4.8,2-5,4.6l-2.3,24.8c-0.3,3,2.1,5.5,5,5.5h24.9c2.6,0,4.8-2,5-4.6l2.3-24.8
		C185.3,182.5,182.9,180,179.9,180z"/>
</g>
<path class="st2" d="M351.3,294.9h-24.9c-2.6,0-4.8,2-5,4.6l-2.3,24.8c-0.3,3,2.1,5.5,5,5.5H349c2.6,0,4.8-2,5-4.6l2.3-24.8
	C356.6,297.5,354.3,294.9,351.3,294.9z"/>
<g>
	<path class="st3" d="M285.2,352.4h-24.9c-2.6,0-4.8,2-5,4.6l-2.3,24.8c-0.3,3,2.1,5.5,5,5.5h24.9c2.6,0,4.8-2,5-4.6l2.3-24.8
		C290.5,354.9,288.2,352.4,285.2,352.4z"/>
	<path class="st3" d="M345.9,352.4H321c-2.6,0-4.8,2-5,4.6l-2.3,24.8c-0.3,3,2.1,5.5,5,5.5h24.9c2.6,0,4.8-2,5-4.6l2.3-24.8
		C351.2,354.9,348.9,352.4,345.9,352.4z"/>
	<path class="st3" d="M117,92.7C91.1,79.2,81.1,47.2,94.6,21.4C98.5,13.9,104,7.7,110.5,3C90,10.3,75.2,29.9,75.2,52.8
		c0,29.1,23.7,52.8,52.8,52.8c7.1,0,13.9-1.4,20.1-4c0.6-1.2,1-2.4,1.4-3.7C138.7,99.7,127.4,98.1,117,92.7z"/>
	<path class="st3" d="M335,92.7c-25.8-13.5-35.9-45.4-22.4-71.3c3.9-7.5,9.5-13.7,15.9-18.4c-20.5,7.3-35.3,26.8-35.3,49.8
		c0,29.1,23.7,52.8,52.8,52.8c7.1,0,13.9-1.4,20.1-4c0.6-1.2,1-2.4,1.4-3.7C356.7,99.7,345.4,98.1,335,92.7z"/>
</g>
<g>
	<g>
		<path class="st11" d="M425.2,301.4c-0.4-0.3-4.2-3.2-11-5.9c-8.8-3.5-18.8-5.4-29-5.4c-10.2,0-20.3,1.9-29,5.4
			c-6.8,2.7-10.6,5.6-11,5.9c-2.1,1.6-3.3,4-3.3,6.6v13.1l8.3,4.5l8.3-4.5v-8.4c4.6-2.3,13.7-5.9,26.7-5.9c12.9,0,22.1,3.6,26.7,5.9
			v8.4l8.3,4.5l8.3-4.5V308C428.5,305.4,427.3,303,425.2,301.4L425.2,301.4z"/>
		<g>
			<path class="st12" d="M341.8,321.1v9.2l8.3,4.5l8.3-4.5v-9.2H341.8z"/>
			<path class="st12" d="M428.5,321.1h-16.7v9.2l8.3,4.5l8.3-4.5V321.1z"/>
		</g>
		<path class="st13" d="M264.9,422v74.1c0,8.8,7.1,15.9,15.9,15.9h208.7c8.8,0,15.9-7.1,15.9-15.9V422H264.9z"/>
		<path class="st14" d="M264.9,412.8v9.2c13.2,10.5,48.2,30.9,120.3,30.9s107-20.4,120.3-30.9v-9.2L264.9,412.8L264.9,412.8z"/>
		<path class="st15" d="M264.2,407.5c12.7,10.3,47.6,31.4,121,31.4s108.3-21.1,121-31.4c3.7-3,5.9-12,5.9-16.8v-44.5
			c0-8.8-7.1-15.9-15.9-15.9H274.2c-8.8,0-15.9,7.1-15.9,15.9v44.5C258.3,395.5,260.5,404.5,264.2,407.5z"/>
		<path class="st13" d="M506.1,403c-12.7,10.3-47.6,31.4-121,31.4s-108.3-21.1-121-31.4c-3.7-3-5.9-7.6-5.9-12.4v9.2
			c0,4.8,2.2,9.3,5.9,12.4c12.7,10.3,47.6,31.4,121,31.4s108.3-21.1,121-31.4c3.7-3,5.9-7.6,5.9-12.4v-9.2
			C512,395.5,509.8,400,506.1,403z"/>
		<path class="st16" d="M385.2,459c8.2,0,14.9-6.1,14.9-19.4v-9c0-2.9-2.4-5.3-5.3-5.3h-19.2c-2.9,0-5.3,2.4-5.3,5.3v9
			C370.2,452.9,376.9,459,385.2,459z"/>
		<path class="st17" d="M385.2,454.6c-8.2,0-14.9-6.7-14.9-14.9v9.2c0,8.2,6.7,14.9,14.9,14.9c8.2,0,14.9-6.7,14.9-14.9v-9.2
			C400.1,447.9,393.4,454.6,385.2,454.6L385.2,454.6z"/>
	</g>
</g>
<path class="st5" d="M222.5,201.9c-2-2.2-3.6-4.4-5.1-6.5c-1.4-1.9-2.6-3.9-3.6-6.1c-0.6-1.3-0.9-2.6,0.5-3.5
	c3.9-2.4,4.8-0.1,6.9,2.6c1.3,1.6,3.1,4.2,4.3,5.9c1.1,1.6,2.5-1.3,3-2.1c1.9-2.9,7-9.9,9.1-12.5c2-2.5,8.4-9.4,9.6-10.5
	c1-0.9,3.2-3,4.6-1.9c1.5,1.2,2.3,3.4,1.2,4.9c-1.9,2.6-4.8,5-6.8,7.4c-4.1,4.9-7.9,10.2-11.6,15.5c-1.3,1.8-3,4.8-4.1,6.8
	C228.3,205.7,226.5,206.4,222.5,201.9L222.5,201.9z"/>
<path class="st5" d="M155.5,258.9c-2-2.2-3.6-4.4-5.1-6.5c-1.4-1.9-2.6-3.9-3.6-6.1c-0.6-1.3-0.9-2.6,0.5-3.5
	c3.9-2.4,4.8-0.1,6.9,2.6c1.3,1.6,3.1,4.2,4.3,5.9c1.1,1.6,2.5-1.3,3-2.1c1.9-2.9,7-9.9,9.1-12.5c2-2.5,8.4-9.4,9.6-10.5
	c1-0.9,3.2-3,4.6-1.9c1.5,1.2,2.3,3.4,1.2,4.9c-1.9,2.6-4.8,5-6.8,7.4c-4.1,4.9-7.9,10.2-11.6,15.5c-1.3,1.8-3,4.8-4.1,6.8
	C161.4,262.7,159.5,263.4,155.5,258.9L155.5,258.9z"/>
<path class="st5" d="M213.9,258.9c-2-2.2-3.6-4.4-5.1-6.5c-1.4-1.9-2.6-3.9-3.6-6.1c-0.6-1.3-0.9-2.6,0.5-3.5
	c3.9-2.4,4.8-0.1,6.9,2.6c1.3,1.6,3.1,4.2,4.3,5.9c1.1,1.6,2.5-1.3,3-2.1c1.9-2.9,7-9.9,9.1-12.5c2-2.5,8.4-9.4,9.6-10.5
	c1-0.9,3.2-3,4.6-1.9c1.5,1.2,2.3,3.4,1.2,4.9c-1.9,2.6-4.8,5-6.8,7.4c-4.1,4.9-7.9,10.2-11.6,15.5c-1.3,1.8-3,4.8-4.1,6.8
	C219.7,262.7,217.9,263.4,213.9,258.9L213.9,258.9z"/>
<path class="st5" d="M282.4,201.9c-2-2.2-3.6-4.4-5.1-6.5c-1.4-1.9-2.6-3.9-3.6-6.1c-0.6-1.3-0.9-2.6,0.5-3.5
	c3.9-2.4,4.8-0.1,6.9,2.6c1.3,1.6,3.1,4.2,4.3,5.9c1.1,1.6,2.5-1.3,3-2.1c1.9-2.9,7-9.9,9.1-12.5c2-2.5,8.4-9.4,9.6-10.5
	c1-0.9,3.2-3,4.6-1.9c1.5,1.2,2.3,3.4,1.2,4.9c-1.9,2.6-4.8,5-6.8,7.4c-4.1,4.9-7.9,10.2-11.6,15.5c-1.3,1.8-3,4.8-4.1,6.8
	C288.2,205.7,286.4,206.4,282.4,201.9L282.4,201.9z"/>
<path class="st5" d="M340.1,201.9c-2-2.2-3.6-4.4-5.1-6.5c-1.4-1.9-2.6-3.9-3.6-6.1c-0.6-1.3-0.9-2.6,0.5-3.5
	c3.9-2.4,4.8-0.1,6.9,2.6c1.3,1.6,3.1,4.2,4.3,5.9c1.1,1.6,2.5-1.3,3-2.1c1.9-2.9,7-9.9,9.1-12.5c2-2.5,8.4-9.4,9.6-10.5
	c1-0.9,3.2-3,4.6-1.9c1.5,1.2,2.3,3.4,1.2,4.9c-1.9,2.6-4.8,5-6.8,7.4c-4.1,4.9-7.9,10.2-11.6,15.5c-1.3,1.8-3,4.8-4.1,6.8
	C345.9,205.7,344.1,206.4,340.1,201.9L340.1,201.9z"/>
</svg>
