<?xml version="1.0" encoding="utf-8"?>
<!-- Generator: Adobe Illustrator 25.0.0, SVG Export Plug-In . SVG Version: 6.00 Build 0)  -->
<svg version="1.1" id="Layer_1" xmlns="http://www.w3.org/2000/svg" xmlns:xlink="http://www.w3.org/1999/xlink" x="0px" y="0px"
	 viewBox="0 0 66 66" style="enable-background:new 0 0 66 66;" xml:space="preserve">
<style type="text/css">
	.st0{fill:#B3E8F4;}
	.st1{fill:#E6E6E8;}
	.st2{fill:#E8664A;}
	.st3{fill:#6FAC43;}
	.st4{fill:#FAD22C;}
	.st5{fill:#1E87B7;}
	.st6{fill:#C6A28A;}
	.st7{fill:#D5B79F;}
	.st8{fill:#D4D8DB;}
	.st9{fill:#D95239;}
	.st10{fill:#B5BABE;}
	.st11{fill:#3B4C56;}
	.st12{fill:#465C6A;}
	.st13{fill:#FFFFFF;}
</style>
<path class="st0" d="M66,33c0,18.2-14.8,33-33,33S0,51.2,0,33S14.8,0,33,0S66,14.8,66,33z"/>
<g>
	<g>
		<path class="st1" d="M1,1h31.9v40.4H1L1,1z"/>
		<g>
			<path class="st2" d="M5.3,18h6.4v6.4H5.3L5.3,18z"/>
			<path class="st3" d="M5.3,7.7h6.4v6.4H5.3L5.3,7.7z"/>
			<path class="st4" d="M5.3,28.2h6.4v6.4H5.3L5.3,28.2z"/>
			<g>
				<g>
					<path class="st5" d="M15.2,7.7h13.5V10H15.2L15.2,7.7z"/>
					<path class="st5" d="M15.2,11.8h7v2.3h-7L15.2,11.8z"/>
				</g>
				<g>
					<path class="st5" d="M15.2,18h13.5v2.3H15.2L15.2,18z"/>
					<path class="st5" d="M15.2,22.1h7v2.3h-7L15.2,22.1z"/>
				</g>
				<g>
					<path class="st5" d="M15.2,28.2h13.5v2.3H15.2L15.2,28.2z"/>
					<path class="st5" d="M15.2,32.3h7v2.3h-7L15.2,32.3z"/>
				</g>
			</g>
		</g>
	</g>
	<g>
		<g>
			<ellipse transform="matrix(0.247 -0.969 0.969 0.247 6.1894 61.0448)" class="st6" cx="42.4" cy="26.5" rx="2.7" ry="1.5"/>
			<ellipse transform="matrix(0.969 -0.247 0.247 0.969 -5.9192 5.9309)" class="st7" cx="20.7" cy="26.6" rx="1.5" ry="2.7"/>
			<path class="st7" d="M27.1,35.3h8.5v6.9h-8.5L27.1,35.3z"/>
			<path class="st6" d="M27.1,35.3h4.2v6.9h-4.2L27.1,35.3z"/>
			<ellipse class="st7" cx="31.6" cy="24.8" rx="10.5" ry="13"/>
			<path class="st6" d="M31.6,11.8v26c5.8,0,10.5-5.8,10.5-13S37.4,11.8,31.6,11.8z"/>
			<path class="st8" d="M49.9,53.1c0.1-3.6-2.4-6-5.3-8.1s-9-4.1-9-4.1l-4,1.4L31.3,42l-3.7-1c0,0-6,2.1-9,4.1
				c-2.9,2.1-5.4,4.5-5.3,8.1s0,11.9,0,11.9h18.3h18.3C49.9,65,49.8,56.7,49.9,53.1z"/>
			<path class="st1" d="M49.9,53.1c0.1-3.6-2.4-6-5.3-8.1s-9-4.1-9-4.1l-4.2,1V65H50C49.9,65,49.8,56.7,49.9,53.1z"/>
			<path class="st8" d="M49.9,65H31.4c4.6-11.8,4.9-21.5,4.9-23.9c0.5,0.2,1.3,0.5,2.2,0.9c2,0.8,4.5,1.9,6.1,3
				c2.9,2.1,5.4,4.5,5.4,8.1C49.8,56.7,49.9,65,49.9,65z"/>
			<path class="st1" d="M31.3,65C31.3,64.9,31.3,65,31.3,65z"/>
			<g>
				<path class="st2" d="M32.7,41.9H30L28.7,44l1.3,2.1h2.7L34,44L32.7,41.9z"/>
				<g>
					<path class="st9" d="M34,44l-1.3-2.1h-1.3v4.2h1.3L34,44z"/>
				</g>
			</g>
			<path class="st10" d="M35.6,38.8l-4.2,3.1l4,3.2l1.1-3.9L35.6,38.8z"/>
			<path class="st1" d="M27.1,38.8l4.3,3.1l-4.1,3.2l-1.1-3.7L27.1,38.8z"/>
			<g>
				<path class="st2" d="M33.9,65h-2.5V46.1h1.3L33.9,65z"/>
				<path class="st9" d="M31.4,65h-2.6L30,46.1h1.4V65z"/>
			</g>
			<path class="st11" d="M31.3,65h-18c0,0,0.1-8.3,0-11.9s2.4-6,5.3-8.1c1.5-1.1,3.8-2.1,5.7-2.9c0.8-0.3,1.6-0.6,2.1-0.8
				C26.5,44,26.9,53.4,31.3,65C31.3,64.9,31.3,65,31.3,65z"/>
			<path class="st12" d="M49.9,65H31.4c4.6-11.8,4.9-21.5,4.9-23.9c0.5,0.2,1.3,0.5,2.2,0.9c2,0.8,4.5,1.9,6.1,3
				c2.9,2.1,5.4,4.5,5.4,8.1C49.8,56.7,49.9,65,49.9,65z"/>
			<g>
				<path class="st11" d="M38.2,50.3L39,53c-2.4,7.6-7.3,11.8-7.6,12.1c3.3-8.5,4.7-16.3,4.9-24.5l2.2,1.4l1.2,6.5L38.2,50.3z"/>
				<path class="st12" d="M31.3,65c-0.5-0.4-4.7-4.6-7.1-12.1l0.8-2.7l-1.5-1.8l0.8-6.3l2.2-1.6C26.8,48.8,28,56.1,31.3,65
					C31.3,64.9,31.3,65,31.3,65z"/>
			</g>
		</g>
		<path class="st12" d="M41.4,14.1c0,0-1.5-5-5.1-5.1c-3.2-0.1-8.8-0.5-13.1,2.2c-1,0.6-1.8,1.6-2.3,2.8c-0.7,1.8-1.5,5.1-0.5,9.1
			l1.4,5.1c0.1,0.3,0.4,0.5,0.7,0.5c0.4,0,0.8-0.4,0.7-0.8c-0.2-2-0.7-7.4,0.1-8.6c1-1.5,1.2-1.6,4.4-0.8c3.2,0.9,10.4,0.4,11.1-0.5
			c0,0,0.7,1.6,0.7,3.4c0,1.5,0.7,5.5,0.9,6.8c0,0.2,0.3,0.4,0.5,0.4s0.5-0.2,0.5-0.4c0.3-2,1.5-10,1.7-11.9
			C43.4,14.2,41.4,14.1,41.4,14.1z"/>
		<path class="st11" d="M41.4,14.1c0,0-1.5-5-5.1-5.1c-1.3-0.1-2.9-0.1-4.7-0.1v10c3.2,0.1,6.8-0.3,7.3-0.9c0,0,0.7,1.6,0.7,3.4
			c0,1.5,0.7,5.5,0.9,6.8c0,0.2,0.3,0.4,0.5,0.4s0.5-0.2,0.5-0.4c0.3-2,1.5-10,1.7-11.9C43.4,14.2,41.4,14.1,41.4,14.1z"/>
	</g>
	<g>
		<g>
			<path class="st11" d="M57.5,45H44.2v-4.6c0-0.5,0.4-0.8,0.8-0.8h11.6c0.5,0,0.8,0.4,0.8,0.8V45H57.5z M45.6,43.6h10.5v-2.7H45.6
				V43.6z"/>
		</g>
		<path class="st6" d="M37.5,42.8v20.8c0,0.7,0.6,1.3,1.3,1.3H63c0.7,0,1.3-0.6,1.3-1.3V42.8L37.5,42.8z"/>
		<path class="st7" d="M63.9,42.8H37.8c-0.6,0-1.1,0.5-1.1,1.1v8.5c0,0.6,0.5,1.1,1.1,1.1h26.1c0.6,0,1.1-0.5,1.1-1.1v-8.5
			C65,43.3,64.5,42.8,63.9,42.8z"/>
		<path class="st7" d="M50.9,42.8v22.1H63c0.7,0,1.3-0.6,1.3-1.3V42.8L50.9,42.8z"/>
		<path class="st6" d="M63.9,42.8h-13v10.6h13c0.6,0,1.1-0.5,1.1-1.1v-8.5C65,43.3,64.5,42.8,63.9,42.8z"/>
		<path class="st12" d="M49.3,51.2V54c0,0.9,0.7,1.6,1.6,1.6s1.6-0.7,1.6-1.6v-2.7L49.3,51.2L49.3,51.2z"/>
		<circle class="st1" cx="50.9" cy="53.9" r="0.8"/>
	</g>
	<g>
		<circle class="st9" cx="11.4" cy="53.1" r="10.3"/>
		<circle class="st2" cx="11.4" cy="53.1" r="6.9"/>
		<path class="st2" d="M11.4,42.8v20.7c5.7,0,10.3-4.6,10.3-10.3C21.7,47.4,17.1,42.8,11.4,42.8z"/>
		<path class="st9" d="M11.4,46.2V60c3.8,0,6.9-3.1,6.9-6.9S15.2,46.2,11.4,46.2z"/>
		<g>
			<path class="st13" d="M10.6,56.2l-3.2-3.1l1.5-1.5l1.7,1.7l3.2-3.2l1.5,1.4L10.6,56.2z"/>
		</g>
	</g>
</g>
</svg>
