<?xml version="1.0" encoding="utf-8"?>
<!-- Generator: Adobe Illustrator 25.0.0, SVG Export Plug-In . SVG Version: 6.00 Build 0)  -->
<svg version="1.1" id="svg6798" xmlns:svg="http://www.w3.org/2000/svg"
	 xmlns="http://www.w3.org/2000/svg" xmlns:xlink="http://www.w3.org/1999/xlink" x="0px" y="0px" viewBox="0 0 682.7 682.7"
	 style="enable-background:new 0 0 682.7 682.7;" xml:space="preserve">
<style type="text/css">
	.st0{clip-path:url(#SVGID_2_);}
	.st1{fill:#FFDD40;}
	.st2{fill:#38C674;}
	.st3{fill:#21B75D;}
	.st4{fill:#13A54E;}
	.st5{fill:#49D88B;}
	.st6{fill:#3C5082;}
	.st7{fill:#2D3C6B;}
	.st8{fill:#4B6496;}
	
		.st9{fill:none;stroke:#2D3C6B;stroke-width:13.3333;stroke-linecap:round;stroke-linejoin:round;stroke-miterlimit:5.3333;stroke-dasharray:40.6333,20.3173;}
	.st10{fill:#FFC839;}
	.st11{fill:#FFB332;}
</style>
<g id="g6804" transform="matrix(1.3333333,0,0,-1.3333333,0,682.66667)">
	<g id="g6806">
		<g>
			<defs>
				<rect id="SVGID_1_" x="-85.3" y="-85.3" width="682.7" height="682.7"/>
			</defs>
			<clipPath id="SVGID_2_">
				<use xlink:href="#SVGID_1_"  style="overflow:visible;"/>
			</clipPath>
			<g id="g6808" class="st0">
				<g id="g6814" transform="translate(501,267)">
					<path id="path6816" class="st1" d="M0,0c0-135.3-109.7-245-245-245S-490-135.3-490,0s109.7,245,245,245S0,135.3,0,0"/>
				</g>
				<g id="g6818" transform="translate(419.3242,451.6699)">
					<path id="path6820" class="st2" d="M0,0v-164.7h-200V0c0,7.4,6,13.3,13.3,13.3h173.3c1.6,0,3.2-0.3,4.6-0.8
						C-3.6,10.6,0,5.7,0,0"/>
				</g>
				<g id="g6822" transform="translate(392.6543,445)">
					<path id="path6824" class="st3" d="M0,0h-146.7c-3.7,0-6.7-3-6.7-6.7V-158h10v114.7c18.4,0,33.3,14.9,33.3,33.3h73.3
						c0-18.4,14.9-33.3,33.3-33.3V-158h10V-6.7C6.7-3,3.7,0,0,0"/>
				</g>
				<g id="g6826" transform="translate(379.3242,287)">
					<path id="path6828" class="st3" d="M0,0h-120c0,33.1,26.9,60,60,60C-26.9,60,0,33.1,0,0"/>
				</g>
				<g id="g6830" transform="translate(92.6753,451.6699)">
					<path id="path6832" class="st3" d="M0,0v-164.7h200V0c0,7.4-6,13.3-13.3,13.3H13.3c-1.6,0-3.2-0.3-4.6-0.8C3.6,10.6,0,5.7,0,0"
						/>
				</g>
				<g id="g6834" transform="translate(112.6753,438.3398)">
					<path id="path6836" class="st4" d="M0,0v-151.3h10v114.7c18.4,0,33.3,14.9,33.3,33.3h73.3c0-18.4,14.9-33.3,33.3-33.3v-114.7
						h10V0c0,3.7-3,6.7-6.7,6.7H6.7C3,6.7,0,3.7,0,0"/>
				</g>
				<g id="g6838" transform="translate(132.6753,287)">
					<path id="path6840" class="st4" d="M0,0h120c0,33.1-26.9,60-60,60S0,33.1,0,0"/>
				</g>
				<g id="g6842" transform="translate(356,451.6699)">
					<path id="path6844" class="st5" d="M0,0v-164.7h-200V0c0,7.4,6,13.3,13.3,13.3h173.3c1.6,0,3.2-0.3,4.6-0.8
						C-3.6,10.6,0,5.7,0,0"/>
				</g>
				<g id="g6846" transform="translate(232.6602,465)">
					<path id="path6848" class="st2" d="M0,0h-63.3c-7.4,0-13.3-6-13.3-13.3V-178h63.3v164.7C-13.3-6-7.4,0,0,0"/>
				</g>
				<g id="g6850" transform="translate(329.3301,445)">
					<path id="path6852" class="st3" d="M0,0h-146.7c-3.7,0-6.7-3-6.7-6.7V-158h10v114.7c18.4,0,33.3,14.9,33.3,33.3h73.3
						c0-18.4,14.9-33.3,33.3-33.3V-158h10V-6.7C6.7-3,3.7,0,0,0"/>
				</g>
				<g id="g6854" transform="translate(316,287)">
					<path id="path6856" class="st3" d="M0,0h-120c0,33.1,26.9,60,60,60S0,33.1,0,0"/>
				</g>
				<g id="g6858" transform="translate(306,287)">
					<path id="path6860" class="st5" d="M0,0h-100c0,27.6,22.4,50,50,50S0,27.6,0,0"/>
				</g>
				<g id="g6862" transform="translate(261,410.0029)">
					<path id="path6864" class="st3" d="M0,0v-38c0-2.8-2.2-5-5-5c-2.8,0-5,2.2-5,5V0c0,2.8,2.2,5,5,5C-2.2,5,0,2.8,0,0"/>
				</g>
				<g id="g6866" transform="translate(256,407.6699)">
					<path id="path6868" class="st3" d="M0,0c9.2,0,16.7-7.5,16.7-16.7c0-9.2-7.5-16.7-16.7-16.7s-16.7,7.5-16.7,16.7
						C-16.7-7.5-9.2,0,0,0"/>
				</g>
				<g id="g6870" transform="translate(416)">
					<path id="path6872" class="st6" d="M0,0h-320c-22.1,0-40,17.9-40,40v240c0,22.1,17.9,40,40,40H0c22.1,0,40-17.9,40-40V40
						C40,17.9,22.1,0,0,0"/>
				</g>
				<g id="g6874" transform="translate(116,40)">
					<path id="path6876" class="st7" d="M0,0v240c0,22.1,17.9,40,40,40h-60c-22.1,0-40-17.9-40-40V0c0-22.1,17.9-40,40-40h60
						C17.9-40,0-22.1,0,0"/>
				</g>
				<g id="g6878" transform="translate(96,15)">
					<path id="path6880" class="st8" d="M0,0c-13.8,0-25,11.2-25,25v240c0,13.8,11.2,25,25,25h320c13.8,0,25-11.2,25-25V25
						c0-13.8-11.2-25-25-25H0z"/>
				</g>
				<g id="g6882" transform="translate(124.7852,305)">
					<path id="path6884" class="st6" d="M0,0h-28.8c-13.8,0-25-11.2-25-25v-240c0-13.8,11.2-25,25-25H0c-5.5,6.8-8.8,15.5-8.8,25
						v240C-8.8-15.5-5.5-6.8,0,0"/>
				</g>
				<g id="g6886" transform="translate(91,45)">
					<path id="path6888" class="st9" d="M0,0v230c0,5.5,4.5,10,10,10h310c5.5,0,10-4.5,10-10V0c0-5.5-4.5-10-10-10H10
						C4.5-10,0-5.5,0,0z"/>
				</g>
				<g id="g6890" transform="translate(456,100)">
					<path id="path6892" class="st6" d="M0,0h-120c-11,0-20,9-20,20v80c0,11,9,20,20,20H0c11,0,20-9,20-20V20C20,9,11,0,0,0"/>
				</g>
				<g id="g6894" transform="translate(376,120)">
					<path id="path6896" class="st7" d="M0,0v80c0,11,9,20,20,20h-60c-11,0-20-9-20-20V0c0-11,9-20,20-20h60C9-20,0-11,0,0"/>
				</g>
				<g id="g6898" transform="translate(416,160)">
					<path id="path6900" class="st1" d="M0,0c0-22.1-17.9-40-40-40S-80-22.1-80,0s17.9,40,40,40S0,22.1,0,0"/>
				</g>
				<g id="g6902" transform="translate(376,160)">
					<path id="path6904" class="st10" d="M0,0c0,14.8,8,27.7,20,34.6C14.1,38,7.3,40,0,40c-22.1,0-40-17.9-40-40s17.9-40,40-40
						c7.3,0,14.1,2,20,5.4C8-27.7,0-14.8,0,0"/>
				</g>
				<g id="g6906" transform="translate(376,135)">
					<path id="path6908" class="st10" d="M0,0c-13.8,0-25,11.2-25,25s11.2,25,25,25s25-11.2,25-25S13.8,0,0,0"/>
				</g>
				<g id="g6910" transform="translate(383.834,136.2637)">
					<path id="path6912" class="st11" d="M0,0c-4.9,6.6-7.8,14.8-7.8,23.7c0,8.9,2.9,17.1,7.8,23.7c-2.5,0.8-5.1,1.3-7.8,1.3
						c-13.8,0-25-11.2-25-25s11.2-25,25-25C-5.1-1.3-2.5-0.8,0,0"/>
				</g>
			</g>
		</g>
	</g>
</g>
</svg>
